<svg xmlns="http://www.w3.org/2000/svg" viewBox="0 0 1200 300" preserveAspectRatio="xMidYMid slice">
  <defs>
    <linearGradient id="skyGrad" x1="0%" y1="0%" x2="100%" y2="0%">
      <stop offset="0%" style="stop-color:#0052D4;stop-opacity:1" />
      <stop offset="100%" style="stop-color:#6FB1FC;stop-opacity:1" />
    </linearGradient>
    <pattern id="pattern" x="0" y="0" width="50" height="50" patternUnits="userSpaceOnUse">
      <path d="M0 50 L50 0" stroke="rgba(255,255,255,0.1)" stroke-width="2"/>
    </pattern>
  </defs>
  <rect width="1200" height="300" fill="url(#skyGrad)" />
  <rect width="1200" height="300" fill="url(#pattern)" />
  
  <!-- Stylized Clouds/Wind -->
  <path d="M-100 250 Q 300 150 600 250 T 1300 250" fill="none" stroke="#FFFFFF" stroke-width="4" opacity="0.3"/>
  <path d="M-100 200 Q 300 100 600 200 T 1300 200" fill="none" stroke="#FFFFFF" stroke-width="2" opacity="0.2"/>
  
  <!-- Plane Silhouette -->
  <path d="M900,100 L940,90 L930,70 L980,85 L1020,60 L1010,95 L1060,100 L1010,120 L980,160 L940,115 Z" fill="#FFFFFF" opacity="0.8" transform="rotate(-5 980 110) scale(1.5)"/>
  
  <text x="60" y="180" font-family="Arial, sans-serif" font-weight="bold" font-size="60" fill="#FFFFFF">Experiencia Premium</text>
  <text x="60" y="230" font-family="Arial, sans-serif" font-size="30" fill="#E0E0E0">Tu viaje comienza aquí</text>
</svg>
