<?xml version="1.0" encoding="UTF-8"?>
<svg version="1.1" xmlns="http://www.w3.org/2000/svg" width="857" height="516">
<path d="M0 0 C282.81 0 565.62 0 857 0 C857 170.28 857 340.56 857 516 C574.19 516 291.38 516 0 516 C0 345.72 0 175.44 0 0 Z " fill="#FDFEFE" transform="translate(0,0)"/>
<path d="M0 0 C0.66 0 1.32 0 2 0 C2 35.64 2 71.28 2 108 C5.96 108 9.92 108 14 108 C14 113.28 14 118.56 14 124 C14.66 124 15.32 124 16 124 C16.3403125 122.9171875 16.3403125 122.9171875 16.6875 121.8125 C19.05307532 116.74341002 23.49176173 113.20322193 28 110 C28.99 110 29.98 110 31 110 C31 109.34 31 108.68 31 108 C35 107 35 107 44 107 C44 113.6 44 120.2 44 127 C30.5 130 30.5 130 26 130 C26 130.66 26 131.32 26 132 C24.34151823 133.01351664 22.67334039 134.01120795 21 135 C18.50359861 137.07260117 17.16071206 138.23972216 16.48101807 141.45513916 C16.47213562 142.37003113 16.46325317 143.2849231 16.45410156 144.22753906 C16.43438293 145.26831604 16.41466431 146.30909302 16.39434814 147.38140869 C16.39311951 148.49820007 16.39189087 149.61499146 16.390625 150.765625 C16.37408875 151.91415955 16.35755249 153.06269409 16.34051514 154.24603271 C16.29193385 157.91407566 16.27064077 161.5817037 16.25 165.25 C16.22184894 167.73700016 16.19192275 170.2239809 16.16015625 172.7109375 C16.08617203 178.80721609 16.03458887 184.90337751 16 191 C5.62723807 191.84443996 -4.66851301 192.15849425 -15.07299805 192.13037109 C-17.45953558 192.12494994 -19.84588954 192.13038778 -22.23242188 192.13671875 C-23.77864624 192.13605876 -25.32487049 192.13477924 -26.87109375 192.1328125 C-27.5702037 192.13483673 -28.26931366 192.13686096 -28.98960876 192.13894653 C-33.74690707 192.11662235 -38.29935917 191.66189545 -43 191 C-43 191.66 -43 192.32 -43 193 C-63.13 193 -83.26 193 -104 193 C-104 183.1 -104 173.2 -104 163 C-116.375 163.495 -116.375 163.495 -129 164 C-129.33 166.97 -129.66 169.94 -130 173 C-130.66 173 -131.32 173 -132 173 C-132.03738281 173.6290625 -132.07476562 174.258125 -132.11328125 174.90625 C-132.17902344 175.7621875 -132.24476563 176.618125 -132.3125 177.5 C-132.37050781 178.3353125 -132.42851562 179.170625 -132.48828125 180.03125 C-133 183 -133 183 -136 191 C-143.59 191 -151.18 191 -159 191 C-158.34 188.69 -157.68 186.38 -157 184 C-156.24186893 180.95989439 -155.50945809 177.91458005 -154.78125 174.8671875 C-154.03740133 172.13726288 -153.10549049 169.60171468 -152 167 C-151.34 167 -150.68 167 -150 167 C-150 165.68 -150 164.36 -150 163 C-149.34 163 -148.68 163 -148 163 C-148 162.01 -148 161.02 -148 160 C-147.34 160 -146.68 160 -146 160 C-145.67 156.7 -145.34 153.4 -145 150 C-144.34 150 -143.68 150 -143 150 C-142.67 147.03 -142.34 144.06 -142 141 C-141.34 141 -140.68 141 -140 141 C-139.896875 139.783125 -139.79375 138.56625 -139.6875 137.3125 C-139.22131003 133.50972182 -138.0369868 131.25917888 -136 128 C-135.18505161 125.35141773 -134.59717183 122.71024136 -134 120 C-133.34 120 -132.68 120 -132 120 C-131.87625 119.34 -131.7525 118.68 -131.625 118 C-130.85479462 114.30301417 -129.93049337 110.65994058 -129 107 C-128.34 107 -127.68 107 -127 107 C-127 105.68 -127 104.36 -127 103 C-126.34 103 -125.68 103 -125 103 C-124.67 100.03 -124.34 97.06 -124 94 C-123.34 94 -122.68 94 -122 94 C-121.814375 92.1746875 -121.814375 92.1746875 -121.625 90.3125 C-121.21108694 86.93520941 -120.45426549 84.10243305 -119 81 C-118.34 81 -117.68 81 -117 81 C-117 80.34 -117 79.68 -117 79 C-110.4 79 -103.8 79 -97 79 C-96.4225 80.77375 -95.845 82.5475 -95.25 84.375 C-93.6092133 89.32665988 -91.78214775 94.14489239 -89.734375 98.94140625 C-89 101 -89 101 -89 104 C-85.79037268 102.93012423 -85.30094163 102.41610306 -83.3125 99.875 C-80.43958345 96.38440639 -77.28163735 93.49021851 -73.83203125 90.578125 C-71.98091136 89.03740136 -71.98091136 89.03740136 -70.38671875 87.296875 C-69 86 -69 86 -67 86 C-67 85.34 -67 84.68 -67 84 C-66.34 84 -65.68 84 -65 84 C-64.505 82.515 -64.505 82.515 -64 81 C-62.86454399 79.8015797 -61.7203377 78.60997056 -60.52880859 77.46728516 C-58.82183186 75.82900183 -57.17120227 74.14320568 -55.51953125 72.44921875 C-54.28393164 71.19523615 -53.04825327 69.94133117 -51.8125 68.6875 C-51.18408203 68.04232422 -50.55566406 67.39714844 -49.90820312 66.73242188 C-49.30556641 66.12333984 -48.70292969 65.51425781 -48.08203125 64.88671875 C-47.53780518 64.33201904 -46.9935791 63.77731934 -46.43286133 63.20581055 C-45 62 -45 62 -43 62 C-43 66.62 -43 71.24 -43 76 C-40.69 76 -38.38 76 -36 76 C-36.01571045 75.3702124 -36.0314209 74.7404248 -36.04760742 74.09155273 C-36.11040232 71.20696175 -36.14913058 68.32251514 -36.1875 65.4375 C-36.21263672 64.44685547 -36.23777344 63.45621094 -36.26367188 62.43554688 C-36.32920685 55.86020446 -36.06889643 50.30496539 -31.375 45.25 C-30.92125 44.8375 -30.4675 44.425 -30 44 C-29.67 43.01 -29.34 42.02 -29 41 C-28.34 41 -27.68 41 -27 41 C-26.58814453 40.12021484 -26.58814453 40.12021484 -26.16796875 39.22265625 C-25.0411622 37.07833208 -23.80919965 35.33605326 -22.3125 33.4375 C-19.82277615 30.188714 -17.60210887 26.84877187 -15.4375 23.375 C-13.52746878 20.31389036 -11.64950884 17.44494386 -9.25 14.75 C-6.72939417 11.66925954 -5.52931429 8.65705592 -4 5 C-1.9375 2.0625 -1.9375 2.0625 0 0 Z " fill="#6BC0C6" transform="translate(406,69)"/>
<path d="M0 0 C0 0.66 0 1.32 0 2 C0.639375 2.2475 1.27875 2.495 1.9375 2.75 C4 4 4 4 4.62890625 6.078125 C4.81259766 7.02945313 4.81259766 7.02945313 5 8 C4.35675781 8.52207031 3.71351563 9.04414062 3.05078125 9.58203125 C-2.19893231 13.8581888 -7.40595926 18.17481653 -12.5625 22.5625 C-17.10031817 26.42180315 -21.69894127 30.18337469 -26.375 33.875 C-28.42532471 35.53478667 -30.43737082 37.21870767 -32.4375 38.9375 C-33.02789062 39.44410156 -33.61828125 39.95070312 -34.2265625 40.47265625 C-35.39175009 41.47615482 -36.55333618 42.48385333 -37.7109375 43.49609375 C-41.78063031 47 -41.78063031 47 -44 47 C-44 47.66 -44 48.32 -44 49 C-45.56940801 50.43812673 -47.20874035 51.8003005 -48.875 53.125 C-49.88175781 53.93066406 -50.88851562 54.73632812 -51.92578125 55.56640625 C-52.94027344 56.36949219 -53.95476562 57.17257813 -55 58 C-56.68780494 59.35378657 -58.37532334 60.7079305 -60.0625 62.0625 C-62.63057582 64.12025306 -65.20784667 66.16050382 -67.8125 68.171875 C-68.72 68.87828125 -69.6275 69.5846875 -70.5625 70.3125 C-71.38878906 70.94800781 -72.21507812 71.58351563 -73.06640625 72.23828125 C-75.25172563 73.94136525 -75.25172563 73.94136525 -76 77 C-75.13375 77.2165625 -75.13375 77.2165625 -74.25 77.4375 C-71.125 78.21875 -71.125 78.21875 -68 79 C-68 79.66 -68 80.32 -68 81 C-67.34773437 81.07476562 -66.69546875 81.14953125 -66.0234375 81.2265625 C-61.84781314 82.29474548 -58.38214022 84.29937708 -54.625 86.375 C-44.00161451 92.46148181 -44.00161451 92.46148181 -32.0625 94.1875 C-30.91910156 94.16042969 -29.77570313 94.13335937 -28.59765625 94.10546875 C-27.31181641 94.05326172 -27.31181641 94.05326172 -26 94 C-26 93.34 -26 92.68 -26 92 C-25.12988281 91.83564453 -25.12988281 91.83564453 -24.2421875 91.66796875 C-20.43484959 90.89519224 -17.24900093 90.12450047 -13.75 88.375 C-10.86360385 86.93180192 -9.17450545 86.71989658 -6 87 C-6 86.34 -6 85.68 -6 85 C0.04057576 82.72942897 5.56318772 81.51085812 12 81 C12 80.34 12 79.68 12 79 C13.32 79 14.64 79 16 79 C16 78.34 16 77.68 16 77 C19.35836125 76.34136993 22.57263684 75.86918461 26 76 C29.125 78.25 29.125 78.25 31 81 C31 81.99 31 82.98 31 84 C28.64902089 85.6510693 26.36379127 87.08782069 23.875 88.5 C23.20984375 88.89058594 22.5446875 89.28117187 21.859375 89.68359375 C18.82279792 91.45195335 15.78476758 93.10574571 12.62890625 94.65625 C9.92913772 95.85780158 9.92913772 95.85780158 8.0625 98 C5.90914357 100.08810321 3.96546728 100.92377795 1.21484375 102.03125 C-1.74846622 103.32737147 -4.58789714 104.78197125 -7.4375 106.3125 C-8.48808594 106.86550781 -9.53867187 107.41851562 -10.62109375 107.98828125 C-11.79865234 108.98408203 -11.79865234 108.98408203 -13 110 C-13.30222931 113.06285513 -13.30222931 113.06285513 -13 116 C-14.9375 118.1875 -14.9375 118.1875 -17 120 C-17.33 120.99 -17.66 121.98 -18 123 C-18.66 123 -19.32 123 -20 123 C-20.12246094 123.93972656 -20.24492187 124.87945312 -20.37109375 125.84765625 C-21.07135084 130.74945591 -22.07426234 135.58710386 -23.0625 140.4375 C-23.24876953 141.35982422 -23.43503906 142.28214844 -23.62695312 143.23242188 C-24.0828737 145.48864423 -24.5405964 147.74448474 -25 150 C-25.66 150 -26.32 150 -27 150 C-26.938125 151.155 -26.87625 152.31 -26.8125 153.5 C-26.78725644 158.21213121 -28.15525488 161.69559472 -30 166 C-36.32835821 165.40298507 -36.32835821 165.40298507 -38.875 163.875 C-41.9377702 158.77038301 -41.18658255 151.42915892 -41.28125 145.6015625 C-41.31900328 143.80598943 -41.3567639 142.01041652 -41.39453125 140.21484375 C-41.44839588 137.40350562 -41.50060358 134.59214151 -41.55224609 131.78076172 C-41.60377862 129.05426572 -41.66104768 126.32793376 -41.71875 123.6015625 C-41.73911316 122.32981674 -41.73911316 122.32981674 -41.7598877 121.03237915 C-41.47393045 117.20486283 -41.47393045 117.20486283 -43 114 C-44.63066766 113.77285996 -46.26976003 113.60544914 -47.91015625 113.46484375 C-48.89951172 113.37783203 -49.88886719 113.29082031 -50.90820312 113.20117188 C-51.94912109 113.11416016 -52.99003906 113.02714844 -54.0625 112.9375 C-55.62967773 112.80118164 -55.62967773 112.80118164 -57.22851562 112.66210938 C-59.8186915 112.43739092 -62.40915767 112.2168769 -65 112 C-65 111.34 -65 110.68 -65 110 C-66.30066406 110.0309375 -67.60132813 110.061875 -68.94140625 110.09375 C-73.75013717 110.09375 -78.22754234 109.39983261 -82.9375 108.5 C-85.26714486 108.10254208 -87.59859481 107.71833164 -89.93115234 107.33837891 C-91.68105642 107.05216613 -93.42870541 106.75221714 -95.17578125 106.44921875 C-97.83041554 106.17932422 -99.50838748 106.03376444 -102 107 C-104.06062963 109.48054785 -105.45457594 111.90492638 -106.84375 114.8125 C-107.41609375 115.8953125 -107.41609375 115.8953125 -108 117 C-108.66 117 -109.32 117 -110 117 C-110 117.66 -110 118.32 -110 119 C-110.66 119 -111.32 119 -112 119 C-112.26570801 119.56984619 -112.53141602 120.13969238 -112.80517578 120.72680664 C-114.06575804 123.1251069 -115.50476106 125.19453041 -117.1171875 127.37109375 C-118.02791016 128.60375977 -118.02791016 128.60375977 -118.95703125 129.86132812 C-119.58996094 130.71146484 -120.22289062 131.56160156 -120.875 132.4375 C-121.50019531 133.28376953 -122.12539062 134.13003906 -122.76953125 135.00195312 C-125.2539694 138.355682 -127.73823211 141.68029987 -130.3828125 144.91015625 C-132.18327797 146.99900695 -132.18327797 146.99900695 -133 150 C-133.66 150 -134.32 150 -135 150 C-135.25007813 150.55945313 -135.50015625 151.11890625 -135.7578125 151.6953125 C-137.20021864 154.37147484 -138.93998199 156.53107252 -140.875 158.875 C-143.82814257 162.45694859 -146.43025396 166.13553517 -149 170 C-150.99627715 172.64472772 -153.02454704 175.26088344 -155.06713867 177.86987305 C-158.63440016 182.45467484 -161.92059614 187.19596072 -165.11328125 192.05078125 C-167 194 -167 194 -169.58203125 194.3984375 C-172 194 -172 194 -174.375 192.3125 C-176 190 -176 190 -175.66796875 187.71875 C-175.33732422 186.37296875 -175.33732422 186.37296875 -175 185 C-174.64191784 183.06321983 -174.28777833 181.12570674 -173.9375 179.1875 C-173.76089844 178.21167969 -173.58429688 177.23585937 -173.40234375 176.23046875 C-173.26957031 175.49441406 -173.13679688 174.75835937 -173 174 C-172.34 174 -171.68 174 -171 174 C-170.95101562 173.27554688 -170.90203125 172.55109375 -170.8515625 171.8046875 C-170.44793848 166.58541133 -169.98724193 161.90186342 -168 157 C-167.34 157 -166.68 157 -166 157 C-165.67 153.37 -165.34 149.74 -165 146 C-164.34 146 -163.68 146 -163 146 C-162.9175 144.948125 -162.835 143.89625 -162.75 142.8125 C-162.12865369 137.69553035 -160.5293005 132.9373747 -158.9375 128.05078125 C-158.11395314 125.37082251 -157.49108463 122.7572356 -157 120 C-156.34 120 -155.68 120 -155 120 C-154.814375 118.824375 -154.814375 118.824375 -154.625 117.625 C-152.2421875 103.8046875 -152.2421875 103.8046875 -150 99 C-149.34 99 -148.68 99 -148 99 C-148 97.68 -148 96.36 -148 95 C-149.58294782 94.94562393 -151.16644256 94.90703729 -152.75 94.875 C-153.63171875 94.85179687 -154.5134375 94.82859375 -155.421875 94.8046875 C-158.1645967 95.01246945 -159.59111174 95.75254001 -162 97 C-168.6325431 98.07158434 -173.16470069 96.96187303 -178.6015625 93.09375 C-179.06304687 92.7328125 -179.52453125 92.371875 -180 92 C-179.51842957 88.82163518 -178.72203116 86.35511229 -177.4375 83.375 C-175.80406897 80.15138512 -175.80406897 80.15138512 -176 77 C-180.95 74.36 -185.9 71.72 -191 69 C-191 68.34 -191 67.68 -191 67 C-193.97 66.505 -193.97 66.505 -197 66 C-197 65.34 -197 64.68 -197 64 C-197.721875 63.731875 -198.44375 63.46375 -199.1875 63.1875 C-201.99766383 62.00098638 -204.48416557 60.72514361 -207 59 C-207 58.34 -207 57.68 -207 57 C-207.83917969 56.86658203 -207.83917969 56.86658203 -208.6953125 56.73046875 C-215.68383177 54.51546349 -222.14774394 47.36301985 -227 42 C-227 41.34 -227 40.68 -227 40 C-227.66 40 -228.32 40 -229 40 C-229.33 38.35 -229.66 36.7 -230 35 C-230.66 35 -231.32 35 -232 35 C-231.6875 32.625 -231.6875 32.625 -231 30 C-228 28 -228 28 -225 28 C-225 27.34 -225 26.68 -225 26 C-212.65176304 23.62533905 -201.11201767 24.15924061 -190 30.0625 C-187.99185611 31.00381745 -186.16179808 31.52710667 -184 32 C-180.29873327 32.81123654 -177.29808501 34.27794696 -173.96484375 36.046875 C-171.05785948 37.45702244 -168.12918282 38.21770429 -165 39 C-165 39.66 -165 40.32 -165 41 C-162.03 41.33 -159.06 41.66 -156 42 C-156 42.66 -156 43.32 -156 44 C-152.7 44.99 -149.4 45.98 -146 47 C-146 47.66 -146 48.32 -146 49 C-142.02022924 49.8441938 -138.02992782 50.44687265 -134 51 C-133.814375 49.948125 -133.814375 49.948125 -133.625 48.875 C-132.80309501 45.09423704 -131.73352329 41.46704658 -130 38 C-128.72125 38.103125 -127.4425 38.20625 -126.125 38.3125 C-125.04605469 38.39951172 -125.04605469 38.39951172 -123.9453125 38.48828125 C-122 39 -122 39 -120 42 C-117.76360616 43.1611984 -117.76360616 43.1611984 -115.1875 44.0625 C-114.33542969 44.38347656 -113.48335938 44.70445313 -112.60546875 45.03515625 C-111.31576172 45.51275391 -111.31576172 45.51275391 -110 46 C-108.33158847 46.66228784 -106.66439017 47.32767004 -105 48 C-105 47.34 -105 46.68 -105 46 C-103.23244474 45.15973604 -101.46082737 44.32801278 -99.6875 43.5 C-98.70136719 43.0359375 -97.71523437 42.571875 -96.69921875 42.09375 C-94 41 -94 41 -91 41 C-91 40.34 -91 39.68 -91 39 C-89.06441401 38.32779649 -87.12645628 37.66241923 -85.1875 37 C-84.10855469 36.62875 -83.02960938 36.2575 -81.91796875 35.875 C-79 35 -79 35 -76 35 C-76 34.34 -76 33.68 -76 33 C-73.69 32.34 -71.38 31.68 -69 31 C-69 30.34 -69 29.68 -69 29 C-66.69 28.67 -64.38 28.34 -62 28 C-62 27.34 -62 26.68 -62 26 C-61.01 26 -60.02 26 -59 26 C-59 25.34 -59 24.68 -59 24 C-56.75083381 23.18512829 -54.50073022 22.37303082 -52.25 21.5625 C-51.61578125 21.33240234 -50.9815625 21.10230469 -50.328125 20.86523438 C-47.24587924 19.75755231 -44.20163562 18.70338964 -41 18 C-41 17.34 -41 16.68 -41 16 C-34.5 13 -34.5 13 -30 13 C-30 12.34 -30 11.68 -30 11 C-28.02 10.67 -26.04 10.34 -24 10 C-24 9.34 -24 8.68 -24 8 C-21.29963802 6.76457219 -18.59732968 5.53398724 -15.890625 4.3125 C-14.2272224 3.5572253 -12.56804094 2.79214 -10.921875 2 C-7.12977269 0.22351964 -4.17587423 -0.30555177 0 0 Z " fill="#162E51" transform="translate(286,38)"/>
<path d="M0 0 C6.93 0 13.86 0 21 0 C21.33 31.35 21.66 62.7 22 95 C23.98 95.99 23.98 95.99 26 97 C26 102.94 26 108.88 26 115 C22.47692421 115.70461516 19.85581596 116.13696157 16.375 116.125 C15.61960937 116.12757813 14.86421875 116.13015625 14.0859375 116.1328125 C12 116 12 116 9 115 C9 114.34 9 113.68 9 113 C8.360625 112.855625 7.72125 112.71125 7.0625 112.5625 C5 112 5 112 4 111 C3.7834375 109.2675 3.7834375 109.2675 3.5625 107.5 C3.376875 106.345 3.19125 105.19 3 104 C2.34 103.67 1.68 103.34 1 103 C0.62875 103.86625 0.62875 103.86625 0.25 104.75 C-1.93571884 108.68429391 -4.7897635 111.37023103 -9 113 C-9.99 113 -10.98 113 -12 113 C-12 113.66 -12 114.32 -12 115 C-16.31717628 116.06035909 -20.51866511 116.14961746 -24.9375 116.125 C-25.62779297 116.12886719 -26.31808594 116.13273437 -27.02929688 116.13671875 C-31.12408324 116.12895612 -34.98358696 115.79196877 -39 115 C-39 114.34 -39 113.68 -39 113 C-39.88429688 112.92007813 -40.76859375 112.84015625 -41.6796875 112.7578125 C-47.96649077 111.32294211 -52.74094939 106.01975133 -56.53125 100.953125 C-58.20456069 98.1563057 -59 96.28842466 -59 93 C-59.66 93 -60.32 93 -61 93 C-61 91.68 -61 90.36 -61 89 C-61.66 89 -62.32 89 -63 89 C-64.06494431 83.79360559 -64.14966663 78.78688032 -64.125 73.5 C-64.12886719 72.67113281 -64.13273437 71.84226562 -64.13671875 70.98828125 C-64.12965546 66.54547424 -63.89447213 62.37297486 -63 58 C-62.34 58 -61.68 58 -61 58 C-60.92265625 56.96230469 -60.8453125 55.92460937 -60.765625 54.85546875 C-59.90146133 50.50378742 -58.61916247 48.64243857 -55.75 45.3125 C-54.98171875 44.40113281 -54.2134375 43.48976563 -53.421875 42.55078125 C-48.77824682 37.65999221 -45.8333427 35.53594845 -39 35 C-39 34.34 -39 33.68 -39 33 C-29.84765397 31.02111437 -21.01886188 31.80886653 -12 34 C-12 34.66 -12 35.32 -12 36 C-11.278125 36.226875 -10.55625 36.45375 -9.8125 36.6875 C-6.43567583 38.26335128 -4.44232961 40.20876616 -2 43 C-2 43.66 -2 44.32 -2 45 C-1.34 45 -0.68 45 0 45 C0 30.15 0 15.3 0 0 Z " fill="#233861" transform="translate(567,293)"/>
<path d="M0 0 C60.83333333 0 60.83333333 0 67 5 C69.48008118 7.55523515 71.76116827 10.23226995 74 13 C74.47953125 13.58136719 74.9590625 14.16273438 75.453125 14.76171875 C82.43118673 23.77855153 82.39128421 33.00056607 82 44 C81.34 44 80.68 44 80 44 C79.92652344 44.90492188 79.92652344 44.90492188 79.8515625 45.828125 C79.77679688 46.62734375 79.70203125 47.4265625 79.625 48.25 C79.52058594 49.43335938 79.52058594 49.43335938 79.4140625 50.640625 C78.98492887 53.085877 78.21399362 54.84836903 77 57 C76.34 57 75.68 57 75 57 C74.7215625 58.051875 74.7215625 58.051875 74.4375 59.125 C72.47932486 63.04135028 69.59323769 65.5338864 66 68 C65.34 68 64.68 68 64 68 C64 68.66 64 69.32 64 70 C58.25597145 72.4508232 53.77536979 73.42637178 47.5625 73.29296875 C46.88251953 73.28994751 46.20253906 73.28692627 45.50195312 73.28381348 C43.00114407 73.26830913 40.50055413 73.22642762 38 73.1875 C29.585 73.0946875 29.585 73.0946875 21 73 C21 85.21 21 97.42 21 110 C14.07 110 7.14 110 0 110 C0 73.7 0 37.4 0 0 Z " fill="#223660" transform="translate(258,297)"/>
<path d="M0 0 C6.6 0 13.2 0 20 0 C20.5775 1.77375 21.155 3.5475 21.75 5.375 C23.62678696 11.01199264 25.75143439 16.50350629 28 22 C29.68238958 26.13796246 31 29.44621276 31 34 C31.66 34 32.32 34 33 34 C33.64894237 36.06152389 34.2940264 38.12426258 34.9375 40.1875 C35.29714844 41.33605469 35.65679687 42.48460937 36.02734375 43.66796875 C36.83756036 46.44353006 37.49134307 49.15687548 38 52 C38.66 52 39.32 52 40 52 C40.67364661 54.08108685 41.33866798 56.1649671 42 58.25 C42.37125 59.41015625 42.7425 60.5703125 43.125 61.765625 C44 65 44 65 44 69 C44.66 69 45.32 69 46 69 C46 70.32 46 71.64 46 73 C46.66 73 47.32 73 48 73 C48.67321284 75.24805002 49.33834123 77.49852224 50 79.75 C50.37125 81.00296875 50.7425 82.2559375 51.125 83.546875 C52 87 52 87 52 91 C52.66 91 53.32 91 54 91 C54 92.32 54 93.64 54 95 C54.66 95 55.32 95 56 95 C56 96.32 56 97.64 56 99 C56.66 99 57.32 99 58 99 C58.50757862 100.41396902 59.00574925 101.83131729 59.5 103.25 C59.7784375 104.03890625 60.056875 104.8278125 60.34375 105.640625 C61 108 61 108 61 112 C57.54173658 112.05789006 54.08359707 112.09355821 50.625 112.125 C49.64015625 112.14175781 48.6553125 112.15851563 47.640625 112.17578125 C46.69960938 112.18222656 45.75859375 112.18867188 44.7890625 112.1953125 C43.48509521 112.21102295 43.48509521 112.21102295 42.15478516 112.22705078 C40 112 40 112 38 110 C38 108.68 38 107.36 38 106 C37.34 106 36.68 106 36 106 C34.99009308 103.08666921 33.99384048 100.16884681 33 97.25 C32.71382813 96.425 32.42765625 95.6 32.1328125 94.75 C31.72675781 93.55117187 31.72675781 93.55117187 31.3125 92.328125 C31.06113281 91.5949707 30.80976563 90.86181641 30.55078125 90.10644531 C30 88 30 88 30 84 C16.14 84.33 2.28 84.66 -12 85 C-12.33 87.97 -12.66 90.94 -13 94 C-13.66 94 -14.32 94 -15 94 C-15.03738281 94.6290625 -15.07476562 95.258125 -15.11328125 95.90625 C-15.21189453 97.19015625 -15.21189453 97.19015625 -15.3125 98.5 C-15.37050781 99.3353125 -15.42851562 100.170625 -15.48828125 101.03125 C-16 104 -16 104 -19 112 C-26.59 112 -34.18 112 -42 112 C-41.34 109.69 -40.68 107.38 -40 105 C-39.24186893 101.95989439 -38.50945809 98.91458005 -37.78125 95.8671875 C-37.03740133 93.13726288 -36.10549049 90.60171468 -35 88 C-34.34 88 -33.68 88 -33 88 C-33 86.68 -33 85.36 -33 84 C-32.34 84 -31.68 84 -31 84 C-31 83.01 -31 82.02 -31 81 C-30.34 81 -29.68 81 -29 81 C-28.67 77.7 -28.34 74.4 -28 71 C-27.34 71 -26.68 71 -26 71 C-25.67 68.03 -25.34 65.06 -25 62 C-24.34 62 -23.68 62 -23 62 C-22.896875 60.783125 -22.79375 59.56625 -22.6875 58.3125 C-22.22131003 54.50972182 -21.0369868 52.25917888 -19 49 C-18.18505161 46.35141773 -17.59717183 43.71024136 -17 41 C-16.34 41 -15.68 41 -15 41 C-14.87625 40.34 -14.7525 39.68 -14.625 39 C-13.85479462 35.30301417 -12.93049337 31.65994058 -12 28 C-11.34 28 -10.68 28 -10 28 C-10 26.68 -10 25.36 -10 24 C-9.34 24 -8.68 24 -8 24 C-7.67 21.03 -7.34 18.06 -7 15 C-6.34 15 -5.68 15 -5 15 C-4.814375 13.1746875 -4.814375 13.1746875 -4.625 11.3125 C-4.21108694 7.93520941 -3.45426549 5.10243305 -2 2 C-1.34 2 -0.68 2 0 2 C0 1.34 0 0.68 0 0 Z " fill="#213861" transform="translate(289,148)"/>
<path d="M0 0 C0 0.66 0 1.32 0 2 C0.61875 2.144375 1.2375 2.28875 1.875 2.4375 C4 3 4 3 6 4 C6 4.66 6 5.32 6 6 C6.71542969 6.06445312 7.43085937 6.12890625 8.16796875 6.1953125 C11.90716378 7.25775964 13.60871588 9.11113179 16.3125 11.875 C17.63701172 13.20144531 17.63701172 13.20144531 18.98828125 14.5546875 C21 17 21 17 21 20 C21.66 20 22.32 20 23 20 C25.03993514 24.92984325 26.40652968 28.57960425 26 34 C26.66 34 27.32 34 28 34 C28 38.62 28 43.24 28 48 C6.88 48 -14.24 48 -36 48 C-35.67 51.3 -35.34 54.6 -35 58 C-34.34 58 -33.68 58 -33 58 C-32.505 58.9075 -32.01 59.815 -31.5 60.75 C-28.59496993 65.30733342 -24.05570436 66.69698341 -19 68 C-13.29852537 68.66689407 -7.64899162 67.82167151 -2 67 C-2 66.34 -2 65.68 -2 65 C-1.34 65 -0.68 65 0 65 C0.28875 64.401875 0.5775 63.80375 0.875 63.1875 C2 61 2 61 4 58 C5.32 58 6.64 58 8 58 C8 58.66 8 59.32 8 60 C9.5778125 59.9690625 9.5778125 59.9690625 11.1875 59.9375 C14.32704904 59.98896802 16.96883396 60.26517187 20 61 C20.79953138 64.28696233 21.09658936 65.71023192 20 69 C18.22265625 70.82421875 18.22265625 70.82421875 16.0625 72.6875 C15.35222656 73.31011719 14.64195312 73.93273437 13.91015625 74.57421875 C12 76 12 76 10 76 C10 76.66 10 77.32 10 78 C-1.63583149 84.46435083 -14.86002661 87.70077743 -27.98046875 83.9765625 C-28.97691406 83.65429688 -29.97335937 83.33203125 -31 83 C-31 82.34 -31 81.68 -31 81 C-31.86625 80.9175 -32.7325 80.835 -33.625 80.75 C-40.88674975 79.13627783 -46.28166807 73.53266333 -51 68 C-51 67.34 -51 66.68 -51 66 C-51.66 66 -52.32 66 -53 66 C-53.33 64.02 -53.66 62.04 -54 60 C-54.66 60 -55.32 60 -56 60 C-56.33 56.7 -56.66 53.4 -57 50 C-57.66 50 -58.32 50 -59 50 C-59.02726927 47.64575325 -59.04696719 45.29183038 -59.0625 42.9375 C-59.07990234 40.97103516 -59.07990234 40.97103516 -59.09765625 38.96484375 C-58.80388364 27.03767594 -54.67166815 19.35033306 -46.76953125 10.6171875 C-45 9 -45 9 -43 9 C-43 8.34 -43 7.68 -43 7 C-41.35 6.67 -39.7 6.34 -38 6 C-38 5.34 -38 4.68 -38 4 C-25.98338232 -1.62479976 -13.01321925 -2.52978601 0 0 Z " fill="#263A62" transform="translate(700,177)"/>
<path d="M0 0 C0 0.66 0 1.32 0 2 C0.556875 2.226875 1.11375 2.45375 1.6875 2.6875 C6.81439246 5.59735788 9.77497179 9.61308961 12 15 C12 15.99 12 16.98 12 18 C12.66 18 13.32 18 14 18 C16 24 16 24 16 41 C-5.45 41 -26.9 41 -49 41 C-49 41.99 -49 42.98 -49 44 C-48.34 44 -47.68 44 -47 44 C-47 45.65 -47 47.3 -47 49 C-46.34 49 -45.68 49 -45 49 C-44.566875 49.928125 -44.13375 50.85625 -43.6875 51.8125 C-41.42195309 56.09186638 -39.4344589 58.12241499 -35 60 C-32.15929079 60.45658834 -32.15929079 60.45658834 -29.125 60.625 C-27.61292969 60.73714844 -27.61292969 60.73714844 -26.0703125 60.8515625 C-23.04130679 60.99800298 -20.03201111 61.02715234 -17 61 C-17 60.34 -17 59.68 -17 59 C-15.27473958 58.08854167 -13.54947917 57.17708333 -11.82421875 56.265625 C-9.5373418 54.82100789 -9.5373418 54.82100789 -7 51 C-3.7 51.66 -0.4 52.32 3 53 C3 53.66 3 54.32 3 55 C4.98 55 6.96 55 9 55 C10.125 58.75 10.125 58.75 9 61 C8.34 61 7.68 61 7 61 C6.7525 61.61875 6.505 62.2375 6.25 62.875 C4.79371361 65.35068687 3.62187494 65.95125002 1 67 C1 67.66 1 68.32 1 69 C0.34 69 -0.32 69 -1 69 C-1 69.66 -1 70.32 -1 71 C-4.72965139 73.03435531 -6.66905042 74 -11 74 C-11 74.66 -11 75.32 -11 76 C-16.28981524 77.75168652 -20.88211358 78.31000417 -26.4375 78.25 C-27.14970703 78.25773437 -27.86191406 78.26546875 -28.59570312 78.2734375 C-33.6898934 78.25493 -38.10048724 77.3919698 -43 76 C-43 75.34 -43 74.68 -43 74 C-43.556875 73.86464844 -44.11375 73.72929687 -44.6875 73.58984375 C-52.62311396 71.35124995 -58.40222962 66.86844839 -63 60 C-63 59.34 -63 58.68 -63 58 C-63.66 58 -64.32 58 -65 58 C-66.4606285 55.35261084 -67 54.10551666 -67 51 C-67.66 51 -68.32 51 -69 51 C-70.1762044 45.71768725 -70.22124372 40.64180324 -70.25 35.25 C-70.270625 34.29867187 -70.29125 33.34734375 -70.3125 32.3671875 C-70.34722858 26.02922224 -69.41393284 20.86552912 -67 15 C-66.34 15 -65.68 15 -65 15 C-64.87625 14.4225 -64.7525 13.845 -64.625 13.25 C-63.99351176 10.97664233 -63.11141809 9.0746471 -62 7 C-61.34 7 -60.68 7 -60 7 C-59.64035156 6.10667969 -59.64035156 6.10667969 -59.2734375 5.1953125 C-57.7375442 2.54754552 -56.19767363 1.5074939 -53.625 -0.125 C-52.46871094 -0.87136719 -52.46871094 -0.87136719 -51.2890625 -1.6328125 C-45.65142857 -5 -45.65142857 -5 -42 -5 C-42 -5.66 -42 -6.32 -42 -7 C-26.54621962 -9.45675483 -13.3564628 -8.34366689 0 0 Z " fill="#253962" transform="translate(479,332)"/>
<path d="M0 0 C0.66 0 1.32 0 2 0 C2 35.64 2 71.28 2 108 C5.96 108 9.92 108 14 108 C14 108.33 14 108.66 14 109 C7.4 109 0.8 109 -6 109 C-6 136.06 -6 163.12 -6 191 C-11.61 191 -17.22 191 -23 191 C-23 163.61 -23 136.22 -23 108 C-29.6 108 -36.2 108 -43 108 C-43 104.7 -43 101.4 -43 98 C-36.4 98 -29.8 98 -23 98 C-23 90.74 -23 83.48 -23 76 C-27.29 76 -31.58 76 -36 76 C-36.08133037 72.47869636 -36.14066172 68.95929246 -36.1875 65.4375 C-36.21263672 64.44685547 -36.23777344 63.45621094 -36.26367188 62.43554688 C-36.32920685 55.86020446 -36.06889643 50.30496539 -31.375 45.25 C-30.92125 44.8375 -30.4675 44.425 -30 44 C-29.67 43.01 -29.34 42.02 -29 41 C-28.34 41 -27.68 41 -27 41 C-26.58814453 40.12021484 -26.58814453 40.12021484 -26.16796875 39.22265625 C-25.0411622 37.07833208 -23.80919965 35.33605326 -22.3125 33.4375 C-19.82277615 30.188714 -17.60210887 26.84877187 -15.4375 23.375 C-13.52746878 20.31389036 -11.64950884 17.44494386 -9.25 14.75 C-6.72939417 11.66925954 -5.52931429 8.65705592 -4 5 C-1.9375 2.0625 -1.9375 2.0625 0 0 Z " fill="#70C7CA" transform="translate(406,69)"/>
<path d="M0 0 C3.72297233 3.40063707 6.66578169 7.06339226 8 12 C8 13.32 8 14.64 8 16 C8.66 16 9.32 16 10 16 C10 37.12 10 58.24 10 80 C2.74 80 -4.52 80 -12 80 C-12.029729 77.54796143 -12.029729 77.54796143 -12.06005859 75.04638672 C-12.13620011 68.97445418 -12.22490493 62.90275859 -12.31738281 56.83105469 C-12.35563712 54.20447471 -12.39049615 51.57784298 -12.421875 48.95117188 C-12.46760187 45.17298909 -12.52558507 41.39516149 -12.5859375 37.6171875 C-12.59748871 36.44509735 -12.60903992 35.2730072 -12.62094116 34.06539917 C-12.7186904 28.65054744 -12.88557998 24.07142847 -15 19 C-15 18.34 -15 17.68 -15 17 C-25.03582771 15.9620401 -25.03582771 15.9620401 -35 17 C-35 17.66 -35 18.32 -35 19 C-35.721875 19.350625 -36.44375 19.70125 -37.1875 20.0625 C-41.30507582 22.89905223 -43.15777949 26.39272652 -45 31 C-45.68205579 34.87746326 -45.72210601 38.66719711 -45.70703125 42.59765625 C-45.72215256 43.67252792 -45.73727386 44.7473996 -45.75285339 45.85484314 C-45.79553178 49.25761216 -45.80454961 52.65949066 -45.8125 56.0625 C-45.8356596 58.38218481 -45.86102795 60.70184868 -45.88867188 63.02148438 C-45.95132866 68.68106763 -45.98381889 74.34010079 -46 80 C-52.6 80 -59.2 80 -66 80 C-66 52.94 -66 25.88 -66 -2 C-60.06 -2 -54.12 -2 -48 -2 C-48 2.62 -48 7.24 -48 12 C-47.34 12 -46.68 12 -46 12 C-45.9175 11.4225 -45.835 10.845 -45.75 10.25 C-44.78202213 7.3460664 -43.31305716 5.96259396 -41 4 C-40.34 4 -39.68 4 -39 4 C-39 3.34 -39 2.68 -39 2 C-37.35 1.67 -35.7 1.34 -34 1 C-34 0.34 -34 -0.32 -34 -1 C-32.68 -1 -31.36 -1 -30 -1 C-30 -1.66 -30 -2.32 -30 -3 C-20.12493578 -4.86579554 -8.58837465 -6.14482036 0 0 Z " fill="#263A63" transform="translate(618,180)"/>
<path d="M0 0 C0 0.66 0 1.32 0 2 C0.556875 2.226875 1.11375 2.45375 1.6875 2.6875 C4.66159588 4.37550036 6.72008865 6.46676517 9 9 C9 9.66 9 10.32 9 11 C9.66 11 10.32 11 11 11 C11.495 12.98 11.495 12.98 12 15 C11.01 15 10.02 15 9 15 C9 15.66 9 16.32 9 17 C5.08709763 18.75380558 1.4257665 19.52564918 -2.8125 20.125 C-3.97394531 20.29257812 -5.13539063 20.46015625 -6.33203125 20.6328125 C-7.21246094 20.75398438 -8.09289062 20.87515625 -9 21 C-9.59296875 20.20207031 -10.1859375 19.40414063 -10.796875 18.58203125 C-13.35658952 15.58208214 -15.23222395 14.94194401 -19 14 C-19 13.34 -19 12.68 -19 12 C-20.93784265 12.14120714 -22.87526955 12.28812873 -24.8125 12.4375 C-25.89144531 12.51871094 -26.97039063 12.59992188 -28.08203125 12.68359375 C-32.89071562 13.20501736 -34.75676541 14.56020573 -38 18 C-38.66 18.556875 -39.32 19.11375 -40 19.6875 C-44.99036673 25.45761153 -46.69310419 31.73898279 -46.38671875 39.29296875 C-45.38804783 46.28366522 -42.00189252 52.11443057 -37 57 C-31.28452426 60.42928544 -25.58595871 60.7765985 -19 60 C-17.65368732 59.35994971 -16.3180128 58.69646571 -15 58 C-14.01 58 -13.02 58 -12 58 C-12 57.34 -12 56.68 -12 56 C-11.34 55.67 -10.68 55.34 -10 55 C-9.67 54.01 -9.34 53.02 -9 52 C-6.36 52.33 -3.72 52.66 -1 53 C-1 53.66 -1 54.32 -1 55 C0.546875 54.9071875 0.546875 54.9071875 2.125 54.8125 C6.23468973 55.01135595 8.48882496 55.94467803 12 58 C11.67 59.65 11.34 61.3 11 63 C10.34 63 9.68 63 9 63 C8.62875 63.86625 8.62875 63.86625 8.25 64.75 C6.81700012 67.32939979 5.21575324 69.06121592 3 71 C2.34 71 1.68 71 1 71 C0.505 72.485 0.505 72.485 0 74 C-2.69543157 75.16182395 -5.21343365 76.1331691 -8 77 C-9.04929687 77.35449219 -10.09859375 77.70898438 -11.1796875 78.07421875 C-15.71944638 79.17434437 -19.85170037 79.29405971 -24.5 79.25 C-25.72396484 79.26160156 -25.72396484 79.26160156 -26.97265625 79.2734375 C-33.74983151 79.25168092 -39.56525796 77.77269277 -45.8125 75.125 C-46.56144531 74.81820312 -47.31039062 74.51140625 -48.08203125 74.1953125 C-50 73 -50 73 -51.01171875 70.9296875 C-51.50091797 69.97449219 -51.50091797 69.97449219 -52 69 C-53.94541681 68.40424535 -53.94541681 68.40424535 -56 68 C-61.27248906 63.68974019 -64.23336866 57.46379231 -66 51 C-66.1015625 48.1953125 -66.1015625 48.1953125 -66 46 C-66.66 46 -67.32 46 -68 46 C-68.46128282 30.31638404 -67.80597294 18.50801263 -57 6 C-54.2421875 4.65625 -54.2421875 4.65625 -52 4 C-52 3.34 -52 2.68 -52 2 C-51.34 2 -50.68 2 -50 2 C-50 1.34 -50 0.68 -50 0 C-43.375 -3 -43.375 -3 -40 -3 C-40 -3.66 -40 -4.32 -40 -5 C-25.89250512 -7.29017774 -12.68943124 -6.92150795 0 0 Z " fill="#253962" transform="translate(712,330)"/>
<path d="M0 0 C7.26 0 14.52 0 22 0 C22 8.58 22 17.16 22 26 C27.61 26 33.22 26 39 26 C39 31.61 39 37.22 39 43 C33.39 43 27.78 43 22 43 C22.11791459 49.39051565 22.24213765 55.78086492 22.37231445 62.17114258 C22.41573507 64.34688953 22.45740471 66.52267214 22.49731445 68.69848633 C22.55484502 71.81863168 22.61858823 74.93859633 22.68359375 78.05859375 C22.70030624 79.03775253 22.71701874 80.01691132 22.73423767 81.02574158 C22.75418289 81.92659988 22.77412811 82.82745819 22.79467773 83.75561523 C22.81799416 84.95141457 22.81799416 84.95141457 22.84178162 86.17137146 C22.80400665 88.01851382 22.80400665 88.01851382 24 89 C25.89364569 89.10013057 27.79121458 89.12966491 29.6875 89.125 C30.72261719 89.12757813 31.75773438 89.13015625 32.82421875 89.1328125 C35.96086136 89.00163679 38.91809766 88.58218845 42 88 C42.19916016 89.28197266 42.19916016 89.28197266 42.40234375 90.58984375 C42.57894531 91.69457031 42.75554688 92.79929687 42.9375 93.9375 C43.11152344 95.03964844 43.28554688 96.14179688 43.46484375 97.27734375 C43.71845136 99.90426929 43.71845136 99.90426929 45 101 C45.04063832 102.66617115 45.042721 104.33388095 45 106 C37.66882074 108.85791734 31.55364278 110.19455495 23.625 110.25 C22.89539063 110.270625 22.16578125 110.29125 21.4140625 110.3125 C16.20406196 110.34971429 12.65980996 109.33605249 8 107 C8 106.34 8 105.68 8 105 C7.401875 104.95875 6.80375 104.9175 6.1875 104.875 C4 104 4 104 2.3815918 101.73388672 C0.36319692 96.27897751 0.63082196 91.15166971 0.70703125 85.3828125 C0.71127609 84.17051971 0.71552094 82.95822693 0.71989441 81.709198 C0.73665054 77.84757018 0.77429855 73.98646938 0.8125 70.125 C0.82755074 67.50261172 0.84123846 64.88021523 0.85351562 62.2578125 C0.88654427 55.83833944 0.93830678 49.419259 1 43 C-2.96 43 -6.92 43 -11 43 C-11 37.39 -11 31.78 -11 26 C-7.37 26 -3.74 26 0 26 C0 17.42 0 8.84 0 0 Z " fill="#273B63" transform="translate(742,299)"/>
<path d="M0 0 C6.93 0 13.86 0 21 0 C21.02505615 2.83182861 21.0501123 5.66365723 21.07592773 8.58129883 C21.15930817 17.92517529 21.24800608 27.26899579 21.33933926 36.61279774 C21.39456427 42.27936151 21.44798367 47.94593044 21.49731445 53.61254883 C21.54496412 59.07849879 21.59730726 64.5443853 21.65294075 70.01025963 C21.67336155 72.09828809 21.69207509 74.18633396 21.70907402 76.27439308 C21.733124 79.19316539 21.76317792 82.11181752 21.79467773 85.03051758 C21.8004332 85.89870117 21.80618866 86.76688477 21.81211853 87.66137695 C21.85341035 91.01512633 21.93233341 93.79700023 23 97 C27.62 97 32.24 97 37 97 C37 98.32 37 99.64 37 101 C37.66 101 38.32 101 39 101 C39.19466332 102.79090253 39.38051213 104.58276505 39.5625 106.375 C39.71912109 107.87160156 39.71912109 107.87160156 39.87890625 109.3984375 C40 112 40 112 39 114 C36.65127012 114.65309071 34.38924155 115.17803792 32 115.625 C30.97386597 115.81739258 30.97386597 115.81739258 29.92700195 116.01367188 C19.84186102 117.81761522 13.87415645 117.53586319 5 112 C4.34 111.34 3.68 110.68 3 110 C3 109.01 3 108.02 3 107 C2.34 107 1.68 107 1 107 C-0.16056394 104.67887212 -0.12333738 103.35672375 -0.12025452 100.77328491 C-0.12162918 99.88704941 -0.12300385 99.0008139 -0.12442017 98.08772278 C-0.12082489 97.11308578 -0.11722961 96.13844879 -0.11352539 95.13427734 C-0.11367142 94.10986038 -0.11381744 93.08544342 -0.1139679 92.02998352 C-0.11326926 88.6319469 -0.10547911 85.23396458 -0.09765625 81.8359375 C-0.0957919 79.48467031 -0.09436808 77.13340273 -0.09336853 74.78213501 C-0.08954471 68.58429905 -0.07971556 62.3864864 -0.06866455 56.18865967 C-0.05844753 49.86796382 -0.05387028 43.54726422 -0.04882812 37.2265625 C-0.03809319 24.81769642 -0.02049747 12.4088538 0 0 Z " fill="#253962" transform="translate(462,145)"/>
<path d="M0 0 C0 6.6 0 13.2 0 20 C-4.95 20.33 -9.9 20.66 -15 21 C-15 21.66 -15 22.32 -15 23 C-16.32 23 -17.64 23 -19 23 C-19 23.66 -19 24.32 -19 25 C-20.65848177 26.01351664 -22.32665961 27.01120795 -24 28 C-26.49640139 30.07260117 -27.83928794 31.23972216 -28.51898193 34.45513916 C-28.52786438 35.37003113 -28.53674683 36.2849231 -28.54589844 37.22753906 C-28.57547638 38.78870453 -28.57547638 38.78870453 -28.60565186 40.38140869 C-28.60749481 42.05659576 -28.60749481 42.05659576 -28.609375 43.765625 C-28.62591125 44.91415955 -28.64244751 46.06269409 -28.65948486 47.24603271 C-28.70806615 50.91407566 -28.72935923 54.5817037 -28.75 58.25 C-28.77815106 60.73700016 -28.80807725 63.2239809 -28.83984375 65.7109375 C-28.91382847 71.80725753 -28.9633417 77.90334585 -29 84 C-35.93 84 -42.86 84 -50 84 C-50 56.61 -50 29.22 -50 1 C-43.4 1 -36.8 1 -30 1 C-29.505 7.93 -29.505 7.93 -29 15 C-27.7625 13.535625 -26.525 12.07125 -25.25 10.5625 C-20.96428571 5.49107143 -20.96428571 5.49107143 -17 5 C-17 4.34 -17 3.68 -17 3 C-10.37955745 0.11107962 -8.0426661 0 0 0 Z " fill="#283C64" transform="translate(403,324)"/>
<path d="M0 0 C0 6.6 0 13.2 0 20 C-13.5 23 -13.5 23 -18 23 C-18 23.66 -18 24.32 -18 25 C-19.65848177 26.01351664 -21.32665961 27.01120795 -23 28 C-25.49640139 30.07260117 -26.83928794 31.23972216 -27.51898193 34.45513916 C-27.52786438 35.37003113 -27.53674683 36.2849231 -27.54589844 37.22753906 C-27.57547638 38.78870453 -27.57547638 38.78870453 -27.60565186 40.38140869 C-27.60749481 42.05659576 -27.60749481 42.05659576 -27.609375 43.765625 C-27.62591125 44.91415955 -27.64244751 46.06269409 -27.65948486 47.24603271 C-27.70806615 50.91407566 -27.72935923 54.5817037 -27.75 58.25 C-27.77815106 60.73700016 -27.80807725 63.2239809 -27.83984375 65.7109375 C-27.91382847 71.80725753 -27.9633417 77.90334585 -28 84 C-34.93 84 -41.86 84 -49 84 C-49 56.94 -49 29.88 -49 2 C-42.73 2 -36.46 2 -30 2 C-30 6.95 -30 11.9 -30 17 C-29.34 17 -28.68 17 -28 17 C-27.773125 16.278125 -27.54625 15.55625 -27.3125 14.8125 C-24.94692468 9.74341002 -20.50823827 6.20322193 -16 3 C-15.01 3 -14.02 3 -13 3 C-13 2.34 -13 1.68 -13 1 C-9 0 -9 0 0 0 Z " fill="#233761" transform="translate(450,176)"/>
<path d="M0 0 C0.495 4.95 0.495 4.95 1 10 C1.33 10 1.66 10 2 10 C2 11.65 2 13.3 2 15 C1.34 15 0.68 15 0 15 C0 15.99 0 16.98 0 18 C-0.66 18 -1.32 18 -2 18 C-2 19.32 -2 20.64 -2 22 C-2.66 22 -3.32 22 -4 22 C-4.13664062 22.70382813 -4.27328125 23.40765625 -4.4140625 24.1328125 C-5.9591375 31.69337948 -7.66673218 39.01601028 -11 46 C-7.37 46 -3.74 46 0 46 C0 46.66 0 47.32 0 48 C-8.32728947 48.02312684 -16.65456563 48.04091683 -24.98187923 48.05181217 C-28.84820118 48.05704026 -32.71450121 48.06413654 -36.58081055 48.07543945 C-40.30903401 48.086271 -44.03723634 48.0922774 -47.76547432 48.09487724 C-49.19089656 48.09673101 -50.61631759 48.10035071 -52.04173088 48.10573006 C-54.03163408 48.11294393 -56.02155834 48.11340808 -58.01147461 48.11352539 C-59.14620712 48.115746 -60.28093964 48.11796661 -61.45005798 48.12025452 C-64 48 -64 48 -65 47 C-65.08700342 45.36527118 -65.10701063 43.72685945 -65.09765625 42.08984375 C-65.09443359 41.10048828 -65.09121094 40.11113281 -65.08789062 39.09179688 C-65.07951172 38.05087891 -65.07113281 37.00996094 -65.0625 35.9375 C-65.05798828 34.89271484 -65.05347656 33.84792969 -65.04882812 32.77148438 C-65.03699913 30.1809334 -65.02051689 27.59049441 -65 25 C-64.44530029 24.81969238 -63.89060059 24.63938477 -63.3190918 24.45361328 C-57.39523765 22.50678321 -51.5776981 20.35508746 -45.77539062 18.07421875 C-41.86069708 16.57237916 -38.16060376 15.53059021 -34 15 C-34 14.34 -34 13.68 -34 13 C-33.00742188 12.64808594 -32.01484375 12.29617187 -30.9921875 11.93359375 C-22.62416173 8.91007974 -14.73150007 5.53250352 -6.890625 1.3203125 C-4 0 -4 0 0 0 Z " fill="#70C6C9" transform="translate(258,214)"/>
<path d="M0 0 C7.26 0 14.52 0 22 0 C22 27.39 22 54.78 22 83 C14.74 83 7.48 83 0 83 C0 55.61 0 28.22 0 0 Z " fill="#2C4067" transform="translate(609,325)"/>
<path d="M0 0 C6.93 0 13.86 0 21 0 C21 27.06 21 54.12 21 82 C14.07 82 7.14 82 0 82 C0 54.94 0 27.88 0 0 Z " fill="#213660" transform="translate(511,178)"/>
<path d="M0 0 C3.37727958 2.37944698 5.07981248 5.07305466 7.234375 8.57421875 C7.894375 8.90421875 8.554375 9.23421875 9.234375 9.57421875 C9.43929066 13.57345187 9.56254282 17.57132206 9.671875 21.57421875 C9.73052734 22.69957031 9.78917969 23.82492187 9.84960938 24.984375 C9.9698894 30.8609134 9.82510861 34.68757227 5.90234375 39.26171875 C0.54049692 44.55764995 -3.89000538 45.73323426 -11.265625 46.01171875 C-18.88118388 45.80235631 -22.79932477 43.84296445 -28.078125 38.32421875 C-33.66624583 31.21206496 -33.04214351 23.81213711 -32.30859375 15.15625 C-31.59117566 10.42335514 -30.47018035 7.51514226 -27.765625 3.57421875 C-25.62890625 2.375 -25.62890625 2.375 -23.765625 1.57421875 C-23.765625 0.91421875 -23.765625 0.25421875 -23.765625 -0.42578125 C-22.775625 -0.42578125 -21.785625 -0.42578125 -20.765625 -0.42578125 C-20.765625 -1.08578125 -20.765625 -1.74578125 -20.765625 -2.42578125 C-13.03848902 -4.53948212 -7.07502136 -3.83413425 0 0 Z " fill="#FAFBFC" transform="translate(557.765625,345.42578125)"/>
<path d="M0 0 C6.6 0 13.2 0 20 0 C20 27.06 20 54.12 20 82 C13.4 82 6.8 82 0 82 C0 54.94 0 27.88 0 0 Z " fill="#1F365F" transform="translate(361,178)"/>
<path d="M0 0 C6.435 -0.1546875 6.435 -0.1546875 13 -0.3125 C14.33675781 -0.35802002 15.67351562 -0.40354004 17.05078125 -0.45043945 C25.79803269 -0.55192328 30.68466045 0.84864335 36.953125 6.87890625 C38.44370187 9.89899296 38.56407539 12.58728152 38.75 15.9375 C38.82734375 17.14277344 38.9046875 18.34804688 38.984375 19.58984375 C38.99813752 22.59351267 38.72646076 25.09966046 38 28 C37.34 28 36.68 28 36 28 C35.896875 28.639375 35.79375 29.27875 35.6875 29.9375 C35.460625 30.618125 35.23375 31.29875 35 32 C34.01 32.33 33.02 32.66 32 33 C32 33.66 32 34.32 32 35 C28.45856475 37.19629783 25.60332753 37.23275752 21.484375 37.1953125 C20.35741211 37.19031738 19.23044922 37.18532227 18.06933594 37.18017578 C16.64395508 37.16196777 15.21857422 37.14375977 13.75 37.125 C9.2125 37.08375 4.675 37.0425 0 37 C0 24.79 0 12.58 0 0 Z " fill="#F5F7F9" transform="translate(279,315)"/>
<path d="M0 0 C1.32 0 2.64 0 4 0 C4.02888146 3.31248187 4.04675799 6.62493167 4.0625 9.9375 C4.07087891 10.88302734 4.07925781 11.82855469 4.08789062 12.80273438 C4.09111328 13.70185547 4.09433594 14.60097656 4.09765625 15.52734375 C4.10289307 16.35999756 4.10812988 17.19265137 4.11352539 18.05053711 C4 20 4 20 3 21 C0.59651714 21.09496708 -1.77810982 21.12558862 -4.18188477 21.11352539 C-5.3086412 21.11374443 -5.3086412 21.11374443 -6.4581604 21.1139679 C-8.95260459 21.11326863 -11.44697503 21.10547564 -13.94140625 21.09765625 C-15.66633564 21.09579212 -17.39126557 21.09436819 -19.11619568 21.09336853 C-23.66512503 21.08954297 -28.21402267 21.07971238 -32.76293945 21.06866455 C-37.40120006 21.05845124 -42.03946577 21.05387108 -46.67773438 21.04882812 C-55.78517022 21.03809014 -64.89258248 21.02101327 -74 21 C-74.04254356 19.00045254 -74.04080783 16.99958364 -74 15 C-71.80823062 12.80823062 -67.10253061 13.12086713 -64.05859375 12.73046875 C-62.17509368 12.47878886 -60.29163143 12.22682579 -58.40820312 11.97460938 C-55.44715548 11.58283103 -52.48581944 11.19375501 -49.52368164 10.81030273 C-38.62274341 9.39237712 -27.99467967 7.77942228 -17.38256836 4.87280273 C-13.04293551 3.75304904 -8.69564694 3.0847049 -4.2578125 2.4921875 C-1.81174696 2.17192976 -1.81174696 2.17192976 0 0 Z " fill="#7AC9CB" transform="translate(182,241)"/>
<path d="M0 0 C0.66 0 1.32 0 2 0 C5.05308251 6.68770456 8 13.57538976 8 21 C8.66 21 9.32 21 10 21 C10 22.65 10 24.3 10 26 C10.66 26 11.32 26 12 26 C12 27.32 12 28.64 12 30 C12.66 30 13.32 30 14 30 C14.19916016 30.90492188 14.19916016 30.90492188 14.40234375 31.828125 C14.66724609 33.02695313 14.66724609 33.02695313 14.9375 34.25 C15.11152344 35.03890625 15.28554688 35.8278125 15.46484375 36.640625 C15.9472157 38.76728673 16.47110699 40.88442798 17 43 C6.77 43 -3.46 43 -14 43 C-12.875 35.125 -12.875 35.125 -11.4375 31.0625 C-11.16808594 30.29035156 -10.89867187 29.51820313 -10.62109375 28.72265625 C-10.41613281 28.15417969 -10.21117187 27.58570313 -10 27 C-9.34 27 -8.68 27 -8 27 C-8 25.68 -8 24.36 -8 23 C-7.34 23 -6.68 23 -6 23 C-5.95101563 22.40832031 -5.90203125 21.81664062 -5.8515625 21.20703125 C-5.43543133 16.80895528 -4.95034405 13.03071103 -3 9 C-2.34 9 -1.68 9 -1 9 C-0.67 6.03 -0.34 3.06 0 0 Z " fill="#7EC0C8" transform="translate(297,174)"/>
<path d="M0 0 C2.49662887 1.83575652 4.90286415 3.71163596 7 6 C7 6.66 7 7.32 7 8 C7.66 8 8.32 8 9 8 C9.495 12.95 9.495 12.95 10 18 C-4.19 18 -18.38 18 -33 18 C-33 16.68 -33 15.36 -33 14 C-32.34 14 -31.68 14 -31 14 C-30.67 11.69 -30.34 9.38 -30 7 C-29.34 7 -28.68 7 -28 7 C-27.731875 6.401875 -27.46375 5.80375 -27.1875 5.1875 C-25.99012525 2.98180967 -24.95521016 1.56416813 -23 0 C-22.01 0 -21.02 0 -20 0 C-20 -0.66 -20 -1.32 -20 -2 C-12.60007357 -3.84998161 -6.7213302 -3.66618011 0 0 Z " fill="#F4F6F8" transform="translate(463,342)"/>
<path d="M0 0 C0 0.66 0 1.32 0 2 C0.89332031 2.16048828 0.89332031 2.16048828 1.8046875 2.32421875 C6.05562556 3.63278153 8.86280553 7.39758961 11.375 10.9375 C12 13 12 13 12 20 C-1.53 20 -15.06 20 -29 20 C-29 12 -29 12 -28 9 C-27.34 9 -26.68 9 -26 9 C-25.731875 8.360625 -25.46375 7.72125 -25.1875 7.0625 C-24 5 -24 5 -21 4 C-21 3.34 -21 2.68 -21 2 C-20.01 2 -19.02 2 -18 2 C-18 1.34 -18 0.68 -18 0 C-12.10985609 -1.52003714 -5.85927818 -1.67407948 0 0 Z " fill="#F6F8F9" transform="translate(693,192)"/>
<path d="M0 0 C2.76375 0.020625 5.5275 0.04125 8.375 0.0625 C8.375 9.9625 8.375 19.8625 8.375 30.0625 C-1.525 30.0625 -11.425 30.0625 -21.625 30.0625 C-21.625 29.4025 -21.625 28.7425 -21.625 28.0625 C-20.305 28.0625 -18.985 28.0625 -17.625 28.0625 C-17.50125 27.010625 -17.3775 25.95875 -17.25 24.875 C-16.70605381 21.55692822 -15.88475437 19.13315129 -14.625 16.0625 C-14.24906934 14.0700675 -13.90520455 12.0706326 -13.625 10.0625 C-12.965 10.0625 -12.305 10.0625 -11.625 10.0625 C-11.57601563 9.42441406 -11.52703125 8.78632813 -11.4765625 8.12890625 C-11.40179688 7.30261719 -11.32703125 6.47632813 -11.25 5.625 C-11.18039062 4.80128906 -11.11078125 3.97757813 -11.0390625 3.12890625 C-10.90242188 2.44699219 -10.76578125 1.76507813 -10.625 1.0625 C-7.31928083 -0.59035959 -3.629622 -0.0380118 0 0 Z " fill="#72C4C8" transform="translate(287.625,231.9375)"/>
<path d="M0 0 C5.61 0 11.22 0 17 0 C17.33773438 1.16917969 17.67546875 2.33835938 18.0234375 3.54296875 C18.47382737 5.09118394 18.9243555 6.63935891 19.375 8.1875 C19.59671875 8.95642578 19.8184375 9.72535156 20.046875 10.51757812 C20.96276894 13.65586176 21.85825695 16.67418125 23.1640625 19.67578125 C24 22 24 22 24 28 C42.315 28.495 42.315 28.495 61 29 C61 29.33 61 29.66 61 30 C40.87 30 20.74 30 0 30 C0 20.1 0 10.2 0 0 Z " fill="#75C6CA" transform="translate(302,232)"/>
<path d="M0 0 C6.93 0 13.86 0 21 0 C21 6.93 21 13.86 21 21 C14.07 21 7.14 21 0 21 C0 14.07 0 7.14 0 0 Z " fill="#2A3D64" transform="translate(609,293)"/>
<path d="M0 0 C6.93 0 13.86 0 21 0 C21 6.93 21 13.86 21 21 C14.07 21 7.14 21 0 21 C0 14.07 0 7.14 0 0 Z " fill="#213560" transform="translate(511,145)"/>
<path d="M0 0 C6.6 0 13.2 0 20 0 C20 6.93 20 13.86 20 21 C13.4 21 6.8 21 0 21 C0 14.07 0 7.14 0 0 Z " fill="#1E375F" transform="translate(361,145)"/>
<path d="M0 0 C0.66 0 1.32 0 2 0 C4.66466125 5.35698334 5.41908735 9.39832489 5.29296875 15.33984375 C5.28872391 16.10680069 5.28447906 16.87375763 5.28010559 17.66395569 C5.2634507 20.08884332 5.22582553 22.51286798 5.1875 24.9375 C5.17243601 26.59178478 5.15875062 28.24608273 5.14648438 29.90039062 C5.11359077 33.93392103 5.06190249 37.96681473 5 42 C3.02 42 1.04 42 -1 42 C-1 33.75 -1 25.5 -1 17 C-1.99 17.33 -2.98 17.66 -4 18 C-3.67 15.03 -3.34 12.06 -3 9 C-2.34 9 -1.68 9 -1 9 C-0.67 6.03 -0.34 3.06 0 0 Z " fill="#F3F8FA" transform="translate(297,174)"/>
<path d="M0 0 C0.66 0 1.32 0 2 0 C2 27.06 2 54.12 2 82 C2.99 82.495 2.99 82.495 4 83 C-9.2 83 -22.4 83 -36 83 C-34.515 82.505 -34.515 82.505 -33 82 C-33 80.02 -33 78.04 -33 76 C-32.5359375 76.9590625 -32.5359375 76.9590625 -32.0625 77.9375 C-31.1654837 79.93610821 -31.1654837 79.93610821 -30 81 C-28.44051458 81.15686249 -26.87457332 81.25076639 -25.30859375 81.31640625 C-24.36435547 81.35830078 -23.42011719 81.40019531 -22.44726562 81.44335938 C-21.45404297 81.48267578 -20.46082031 81.52199219 -19.4375 81.5625 C-17.94186523 81.62727539 -17.94186523 81.62727539 -16.41601562 81.69335938 C-13.9441585 81.79980298 -11.4721969 81.90181928 -9 82 C-8.505 80.515 -8.505 80.515 -8 79 C-8 79.66 -8 80.32 -8 81 C-5.36 81.33 -2.72 81.66 0 82 C0 54.94 0 27.88 0 0 Z " fill="#5B9EAE" transform="translate(359,178)"/>
<path d="M0 0 C10.56 0 21.12 0 32 0 C32 1.98 32 3.96 32 6 C21.11 6 10.22 6 -1 6 C-0.67 4.02 -0.34 2.04 0 0 Z " fill="#94D0D1" transform="translate(69,256)"/>
<path d="M0 0 C0.33 0 0.66 0 1 0 C1.33 2.97 1.66 5.94 2 9 C2.66 9 3.32 9 4 9 C4 10.65 4 12.3 4 14 C4.66 14 5.32 14 6 14 C6 15.32 6 16.64 6 18 C6.66 18 7.32 18 8 18 C8.13277344 18.60328125 8.26554687 19.2065625 8.40234375 19.828125 C8.57894531 20.62734375 8.75554687 21.4265625 8.9375 22.25 C9.11152344 23.03890625 9.28554688 23.8278125 9.46484375 24.640625 C9.9472157 26.76728673 10.47110699 28.88442798 11 31 C7.37 31 3.74 31 0 31 C0 20.77 0 10.54 0 0 Z " fill="#6BB8C3" transform="translate(303,186)"/>
<path d="M0 0 C2.31 0 4.62 0 7 0 C7 0.33 7 0.66 7 1 C5.02 1 3.04 1 1 1 C1 27.4 1 53.8 1 81 C10.87887823 81.95712457 10.87887823 81.95712457 19 79 C19.09333705 77.40389018 19.11745372 75.80366572 19.11352539 74.20483398 C19.11341209 72.67335976 19.11341209 72.67335976 19.11329651 71.11094666 C19.10813522 70.0005452 19.10297394 68.89014374 19.09765625 67.74609375 C19.0962413 66.61551041 19.09482635 65.48492706 19.09336853 64.32008362 C19.08775019 60.69252935 19.07519458 57.06503576 19.0625 53.4375 C19.05748736 50.98502693 19.05292405 48.5325529 19.04882812 46.08007812 C19.0377748 40.05336455 19.02101884 34.02668661 19 28 C19.99 28.66 20.98 29.32 22 30 C22.32279968 32.21463013 22.32279968 32.21463013 22.2487793 35.00048828 C22.22853195 36.04141632 22.20828461 37.08234436 22.18742371 38.15481567 C22.13138725 39.8454866 22.13138725 39.8454866 22.07421875 41.5703125 C22.04777786 42.72167694 22.02133698 43.87304138 21.99409485 45.05929565 C21.90609877 48.74837752 21.79702854 52.43650059 21.6875 56.125 C21.62426564 58.62105904 21.56239881 61.11715312 21.50195312 63.61328125 C21.35051976 69.7427073 21.18018004 75.87135432 21 82 C14.07 82 7.14 82 0 82 C0 54.94 0 27.88 0 0 Z " fill="#1A4465" transform="translate(401,178)"/>
<path d="M0 0 C0 4.29 0 8.58 0 13 C-0.66 13 -1.32 13 -2 13 C-2.33 12.01 -2.66 11.02 -3 10 C-3.598125 10.350625 -4.19625 10.70125 -4.8125 11.0625 C-7 12 -7 12 -10 11 C-10 11.66 -10 12.32 -10 13 C-11.32 12.67 -12.64 12.34 -14 12 C-12.04761147 9.99387601 -10.08862178 7.99507567 -8.125 6 C-7.29162109 5.14148438 -7.29162109 5.14148438 -6.44140625 4.265625 C-2.2265625 0 -2.2265625 0 0 0 Z " fill="#80C7CB" transform="translate(363,131)"/>
<path d="M0 0 C0.99 0.66 1.98 1.32 3 2 C3.32279968 4.21463013 3.32279968 4.21463013 3.2487793 7.00048828 C3.22853195 8.04141632 3.20828461 9.08234436 3.18742371 10.15481567 C3.13138725 11.8454866 3.13138725 11.8454866 3.07421875 13.5703125 C3.04777786 14.72167694 3.02133698 15.87304138 2.99409485 17.05929565 C2.90609877 20.74837752 2.79702854 24.43650059 2.6875 28.125 C2.62426564 30.62105904 2.56239881 33.11715312 2.50195312 35.61328125 C2.35051976 41.7427073 2.18018004 47.87135432 2 54 C-2.95 54 -7.9 54 -13 54 C-13 53.67 -13 53.34 -13 53 C-12.14535156 52.93941406 -11.29070312 52.87882812 -10.41015625 52.81640625 C-9.30542969 52.73261719 -8.20070313 52.64882813 -7.0625 52.5625 C-5.96035156 52.48128906 -4.85820312 52.40007812 -3.72265625 52.31640625 C-1.08890097 52.29581916 -1.08890097 52.29581916 0 51 C0.09333705 49.40389018 0.11745372 47.80366572 0.11352539 46.20483398 C0.11344986 45.18385117 0.11337433 44.16286835 0.11329651 43.11094666 C0.10813522 42.0005452 0.10297394 40.89014374 0.09765625 39.74609375 C0.0962413 38.61551041 0.09482635 37.48492706 0.09336853 36.32008362 C0.08775019 32.69252935 0.07519458 29.06503576 0.0625 25.4375 C0.05748736 22.98502693 0.05292405 20.5325529 0.04882812 18.08007812 C0.0377748 12.05336455 0.02101884 6.02668661 0 0 Z " fill="#384768" transform="translate(420,206)"/>
<path d="M0 0 C2.31 0 4.62 0 7 0 C7 3.3 7 6.6 7 10 C4.69 10 2.38 10 0 10 C0 6.7 0 3.4 0 0 Z " fill="#EEFAFA" transform="translate(363,167)"/>
<path d="M0 0 C6.93 0 13.86 0 21 0 C21 6.93 21 13.86 21 21 C15.06 21 9.12 21 3 21 C3 20.67 3 20.34 3 20 C7.95 19.67 12.9 19.34 18 19 C19.02835363 15.91493912 19.13368434 13.7305728 19.125 10.5 C19.12757813 9.5409375 19.13015625 8.581875 19.1328125 7.59375 C19.10992972 4.88428848 19.10992972 4.88428848 18 2 C12.06 1.67 6.12 1.34 0 1 C0 0.67 0 0.34 0 0 Z " fill="#2F3F5F" transform="translate(511,145)"/>
<path d="M0 0 C0.66 0.33 1.32 0.66 2 1 C1.34 2.98 0.68 4.96 0 7 C3.63 7 7.26 7 11 7 C11 7.33 11 7.66 11 8 C-5.5 8 -22 8 -39 8 C-39 7.67 -39 7.34 -39 7 C-26.79 7 -14.58 7 -2 7 C-2 5.68 -2 4.36 -2 3 C-1.34 3 -0.68 3 0 3 C0 2.01 0 1.02 0 0 Z " fill="#6CB2B8" transform="translate(247,253)"/>
<path d="M0 0 C2.97 0.495 2.97 0.495 6 1 C6.79953138 4.28696233 7.09658936 5.71023192 6 9 C4.12382302 10.84499398 2.07262391 12.3683599 0 14 C-1.35384615 6.61538462 -1.35384615 6.61538462 0.4375 3.5 C0.953125 3.005 1.46875 2.51 2 2 C1.34 2 0.68 2 0 2 C0 1.34 0 0.68 0 0 Z " fill="#38486C" transform="translate(714,237)"/>
<path d="M0 0 C0.33 0.66 0.66 1.32 1 2 C0.01 2 -0.98 2 -2 2 C-2 2.66 -2 3.32 -2 4 C-2.66 4 -3.32 4 -4 4 C-3.67 4.99 -3.34 5.98 -3 7 C-3.9590625 7.37125 -3.9590625 7.37125 -4.9375 7.75 C-7.17301987 8.77924751 -7.17301987 8.77924751 -7.5 10.875 C-7.665 11.57625 -7.83 12.2775 -8 13 C-10.42542103 15.92723228 -12.19902189 17.45700313 -16 18 C-14.20809964 12.92294898 -12.23140472 8.11570236 -7.25 5.625 C-6.13625 5.315625 -6.13625 5.315625 -5 5 C-5 4.34 -5 3.68 -5 3 C-4.34 3 -3.68 3 -3 3 C-3 2.34 -3 1.68 -3 1 C-2.01 0.67 -1.02 0.34 0 0 Z " fill="#3A4B6D" transform="translate(665,329)"/>
<path d="M0 0 C-3.35055899 2.23370599 -5.82192459 2.75749742 -9.75 3.5625 C-11.53664062 3.93568359 -11.53664062 3.93568359 -13.359375 4.31640625 C-18.56467273 5.29379585 -23.63121679 6.14413513 -28.9375 6.0625 C-29.70964844 6.05347656 -30.48179687 6.04445312 -31.27734375 6.03515625 C-31.84582031 6.02355469 -32.41429687 6.01195312 -33 6 C-33 5.67 -33 5.34 -33 5 C-31.49373047 4.72736328 -31.49373047 4.72736328 -29.95703125 4.44921875 C-28.57539904 4.19597609 -27.19389795 3.94201741 -25.8125 3.6875 C-24.7311377 3.48882324 -24.7311377 3.48882324 -23.62792969 3.28613281 C-17.91956658 2.21785702 -12.2950232 0.90886388 -6.671875 -0.546875 C-4.01922918 -0.99673891 -2.50902247 -0.88413173 0 0 Z " fill="#89C7C8" transform="translate(177,245)"/>
<path d="M0 0 C0 1.98 0 3.96 0 6 C-1.155 5.835 -2.31 5.67 -3.5 5.5 C-7.69907803 4.96761689 -11.77063041 4.92447554 -16 5 C-16.33 4.01 -16.66 3.02 -17 2 C-14.54187409 1.66507287 -12.08352273 1.3319903 -9.625 1 C-8.92632813 0.90460938 -8.22765625 0.80921875 -7.5078125 0.7109375 C-2.2265625 0 -2.2265625 0 0 0 Z " fill="#4E5C7D" transform="translate(784,387)"/>
<path d="M0 0 C0.33 0 0.66 0 1 0 C1 5.94 1 11.88 1 18 C-2.47639313 18.69527863 -5.17561148 19.15786608 -8.625 19.1875 C-9.38039063 19.20167969 -10.13578125 19.21585937 -10.9140625 19.23046875 C-13 19 -13 19 -16 17 C-11.05 16.67 -6.1 16.34 -1 16 C-0.67 10.72 -0.34 5.44 0 0 Z " fill="#414F6C" transform="translate(592,390)"/>
<path d="M0 0 C0.33 0 0.66 0 1 0 C1 1.65 1 3.3 1 5 C0.34 5 -0.32 5 -1 5 C-1 5.66 -1 6.32 -1 7 C-0.34 7.33 0.32 7.66 1 8 C0.67 8.33 0.34 8.66 0 9 C0 10.134375 0 11.26875 0 12.4375 C0 16 0 16 -1 18 C-2.65 18 -4.3 18 -6 18 C-6.33 18.99 -6.66 19.98 -7 21 C-7 19.68 -7 18.36 -7 17 C-6.34 17 -5.68 17 -5 17 C-4.87625 16.34 -4.7525 15.68 -4.625 15 C-3.85479462 11.30301417 -2.93049337 7.65994058 -2 4 C-1.34 4 -0.68 4 0 4 C0 2.68 0 1.36 0 0 Z " fill="#4A597B" transform="translate(279,172)"/>
<path d="M0 0 C3.96 0 7.92 0 12 0 C12 0.33 12 0.66 12 1 C9.03 1 6.06 1 3 1 C3 3.64 3 6.28 3 9 C5.97 9 8.94 9 12 9 C12 9.33 12 9.66 12 10 C8.04 10 4.08 10 0 10 C0 6.7 0 3.4 0 0 Z " fill="#88D2D4" transform="translate(370,167)"/>
<path d="M0 0 C0.33 0 0.66 0 1 0 C1.05945801 0.89307861 1.05945801 0.89307861 1.12011719 1.80419922 C1.31041844 4.49627858 1.52982588 7.18520615 1.75 9.875 C1.811875 10.81214844 1.87375 11.74929687 1.9375 12.71484375 C2.01484375 13.61074219 2.0921875 14.50664062 2.171875 15.4296875 C2.2661377 16.67081299 2.2661377 16.67081299 2.36230469 17.93701172 C2.80251722 20.1853649 2.80251722 20.1853649 4.98925781 21.16064453 C5.65280273 21.43763184 6.31634766 21.71461914 7 22 C7.33 22.66 7.66 23.32 8 24 C8.99 24.66 9.98 25.32 11 26 C4.67164179 25.40298507 4.67164179 25.40298507 2.125 23.875 C-0.76917973 19.05136712 -0.11068273 12.50714872 -0.0625 7.0625 C-0.05798828 6.37865234 -0.05347656 5.69480469 -0.04882812 4.99023438 C-0.0371956 3.32678396 -0.01926694 1.6633795 0 0 Z " fill="#4B5870" transform="translate(245,178)"/>
<path d="M0 0 C0 0.33 0 0.66 0 1 C-7.59 1 -15.18 1 -23 1 C-23 1.66 -23 2.32 -23 3 C-24.32 2.67 -25.64 2.34 -27 2 C-26.01 2 -25.02 2 -24 2 C-24 1.34 -24 0.68 -24 0 C-16.66063675 -3.26193922 -7.33936325 -3.26193922 0 0 Z " fill="#949FB3" transform="translate(551,325)"/>
<path d="M0 0 C0.66 0.33 1.32 0.66 2 1 C1.67 1.66 1.34 2.32 1 3 C0.34 3 -0.32 3 -1 3 C-1 3.99 -1 4.98 -1 6 C-0.34 6 0.32 6 1 6 C-0.5817307 9.1634614 -3.24242745 10.86147435 -6 13 C-6.66 13 -7.32 13 -8 13 C-8.33 13.99 -8.66 14.98 -9 16 C-9 14.68 -9 13.36 -9 12 C-8.34 12 -7.68 12 -7 12 C-6.87625 11.4225 -6.7525 10.845 -6.625 10.25 C-5.99351176 7.97664233 -5.11141809 6.0746471 -4 4 C-3.34 4 -2.68 4 -2 4 C-1.34 2.68 -0.68 1.36 0 0 Z " fill="#4A5878" transform="translate(421,335)"/>
<path d="M0 0 C-2 2 -2 2 -4.0625 2.4375 C-4.701875 2.623125 -5.34125 2.80875 -6 3 C-6.33 3.99 -6.66 4.98 -7 6 C-9.0625 7.6875 -9.0625 7.6875 -11 9 C-11.66 8.67 -12.32 8.34 -13 8 C-12.67 7.34 -12.34 6.68 -12 6 C-12.66 6 -13.32 6 -14 6 C-14 5.34 -14 4.68 -14 4 C-5.30260521 -1.96392786 -5.30260521 -1.96392786 0 0 Z " fill="#0F2444" transform="translate(271,46)"/>
<path d="M0 0 C0.99 0 1.98 0 3 0 C3 4.95 3 9.9 3 15 C4.65 15 6.3 15 8 15 C8 15.33 8 15.66 8 16 C5.69 16 3.38 16 1 16 C1 11.38 1 6.76 1 2 C0.34 1.67 -0.32 1.34 -1 1 C-0.67 0.67 -0.34 0.34 0 0 Z " fill="#CEE5EA" transform="translate(362,129)"/>
<path d="M0 0 C6.6 0 13.2 0 20 0 C19.67 1.32 19.34 2.64 19 4 C19 3.01 19 2.02 19 1 C16.74943278 1.11433363 14.49953326 1.24186436 12.25 1.375 C10.37054688 1.47941406 10.37054688 1.47941406 8.453125 1.5859375 C5.37746013 1.95473894 3.53601073 2.2888083 1 4 C0.67 4.66 0.34 5.32 0 6 C-0.66 6 -1.32 6 -2 6 C-2 4.68 -2 3.36 -2 2 C-1.34 2 -0.68 2 0 2 C0 1.34 0 0.68 0 0 Z " fill="#546280" transform="translate(289,148)"/>
<path d="M0 0 C17.3227695 -0.38258877 17.3227695 -0.38258877 25 2 C25.66 2.66 26.32 3.32 27 4 C25.3745692 3.85904936 23.74965949 3.71207913 22.125 3.5625 C21.22007812 3.48128906 20.31515625 3.40007812 19.3828125 3.31640625 C17 3 17 3 15 2 C12.45384991 1.76827173 9.92603775 1.58105471 7.375 1.4375 C6.66859375 1.39431641 5.9621875 1.35113281 5.234375 1.30664062 C3.48981463 1.20055249 1.74493303 1.09977111 0 1 C0 0.67 0 0.34 0 0 Z " fill="#65718B" transform="translate(679,324)"/>
<path d="M0 0 C4.50884026 2.31883213 6.93906776 5.06451569 10 9 C9.67 9.66 9.34 10.32 9 11 C7.35 10.67 5.7 10.34 4 10 C4 9.01 4 8.02 4 7 C2.68678142 5.3174387 1.35386936 3.65002828 0 2 C0 1.34 0 0.68 0 0 Z " fill="#3A4A6B" transform="translate(614,178)"/>
<path d="M0 0 C0.66 0.33 1.32 0.66 2 1 C2 2.32 2 3.64 2 5 C3.65 5.33 5.3 5.66 7 6 C6.6875 7.9375 6.6875 7.9375 6 10 C5.01 10.33 4.02 10.66 3 11 C3 10.34 3 9.68 3 9 C2.34 9 1.68 9 1 9 C1 8.34 1 7.68 1 7 C0.34 7 -0.32 7 -1 7 C-1.33 5.35 -1.66 3.7 -2 2 C-1.34 2 -0.68 2 0 2 C0 1.34 0 0.68 0 0 Z " fill="#102248" transform="translate(57,68)"/>
<path d="M0 0 C1.2065625 0.0309375 1.2065625 0.0309375 2.4375 0.0625 C1.16235508 2.61278983 0.03408703 2.99331711 -2.5625 4.0625 C-3.5525 4.0625 -4.5425 4.0625 -5.5625 4.0625 C-5.5625 4.7225 -5.5625 5.3825 -5.5625 6.0625 C-7.8725 6.3925 -10.1825 6.7225 -12.5625 7.0625 C-11.4375 4.625 -11.4375 4.625 -9.5625 2.0625 C-6.4375 1.3125 -6.4375 1.3125 -3.5625 1.0625 C-2.5625 0.0625 -2.5625 0.0625 0 0 Z " fill="#3E4C6F" transform="translate(560.5625,401.9375)"/>
<path d="M0 0 C0.79921875 0.00902344 1.5984375 0.01804687 2.421875 0.02734375 C3.02515625 0.03894531 3.6284375 0.05054688 4.25 0.0625 C4.25 0.3925 4.25 0.7225 4.25 1.0625 C2.98542969 1.10117187 2.98542969 1.10117187 1.6953125 1.140625 C0.59960938 1.19734375 -0.49609375 1.2540625 -1.625 1.3125 C-2.71554687 1.35890625 -3.80609375 1.4053125 -4.9296875 1.453125 C-7.86332737 1.7410269 -7.86332737 1.7410269 -9.01171875 3.99609375 C-9.25535156 4.67800781 -9.49898437 5.35992187 -9.75 6.0625 C-11.6875 7.875 -11.6875 7.875 -13.75 9.0625 C-14.74 8.7325 -15.73 8.4025 -16.75 8.0625 C-15.375 6.5625 -15.375 6.5625 -13.75 5.0625 C-13.09 5.0625 -12.43 5.0625 -11.75 5.0625 C-11.75 4.4025 -11.75 3.7425 -11.75 3.0625 C-10.76 3.0625 -9.77 3.0625 -8.75 3.0625 C-8.75 2.4025 -8.75 1.7425 -8.75 1.0625 C-5.75519083 0.1901588 -3.11424089 -0.04579766 0 0 Z " fill="#ADB7CC" transform="translate(545.75,341.9375)"/>
<path d="M0 0 C0.309375 0.639375 0.61875 1.27875 0.9375 1.9375 C1.8345163 3.93610821 1.8345163 3.93610821 3 5 C4.55948542 5.15686249 6.12542668 5.25076639 7.69140625 5.31640625 C8.63564453 5.35830078 9.57988281 5.40019531 10.55273438 5.44335938 C12.04256836 5.50233398 12.04256836 5.50233398 13.5625 5.5625 C14.55958984 5.60568359 15.55667969 5.64886719 16.58398438 5.69335938 C19.0558415 5.79980298 21.5278031 5.90181928 24 6 C24 6.33 24 6.66 24 7 C15.09 7 6.18 7 -3 7 C-2.01 6.67 -1.02 6.34 0 6 C0 4.02 0 2.04 0 0 Z " fill="#67A6B3" transform="translate(326,254)"/>
<path d="M0 0 C1.65 0 3.3 0 5 0 C5.33 1.32 5.66 2.64 6 4 C5.21625 4.4125 4.4325 4.825 3.625 5.25 C0.87434558 7.08376961 0.29110023 8.07994153 -1 11 C-1.0270043 9.54176788 -1.04639787 8.08339325 -1.0625 6.625 C-1.07410156 5.81289062 -1.08570313 5.00078125 -1.09765625 4.1640625 C-1 2 -1 2 0 0 Z " fill="#0D1E42" transform="translate(156,78)"/>
<path d="M0 0 C2.04119788 1.61594832 4.04072937 3.2856382 6 5 C6 5.66 6 6.32 6 7 C6.66 7 7.32 7 8 7 C8.33 8.32 8.66 9.64 9 11 C8.34 11 7.68 11 7 11 C6.67 10.34 6.34 9.68 6 9 C4.66923011 8.65657551 3.33568021 8.32380126 2 8 C0 6 0 6 -0.125 2.875 C-0.08375 1.92625 -0.0425 0.9775 0 0 Z " fill="#324266" transform="translate(715,334)"/>
<path d="M0 0 C0.33 0.66 0.66 1.32 1 2 C0.01 2 -0.98 2 -2 2 C-2 3.32 -2 4.64 -2 6 C-3.32 6 -4.64 6 -6 6 C-6.268125 6.639375 -6.53625 7.27875 -6.8125 7.9375 C-8 10 -8 10 -11 11 C-11.33 11.66 -11.66 12.32 -12 13 C-12.66 12.67 -13.32 12.34 -14 12 C-12.92807816 10.6781638 -11.84197305 9.36782073 -10.75 8.0625 C-10.14671875 7.33160156 -9.5434375 6.60070312 -8.921875 5.84765625 C-6.89258866 3.89673666 -5.745593 3.38268221 -3 3 C-3 2.34 -3 1.68 -3 1 C-2.01 0.67 -1.02 0.34 0 0 Z " fill="#55637F" transform="translate(389,326)"/>
<path d="M0 0 C0.66 0 1.32 0 2 0 C2.33 2.64 2.66 5.28 3 8 C1.02 8.33 -0.96 8.66 -3 9 C-2.44271087 5.65626525 -1.64826111 2.96687001 0 0 Z " fill="#162448" transform="translate(113,219)"/>
<path d="M0 0 C2.0625 1.6875 2.0625 1.6875 4 4 C3.75 6.75 3.75 6.75 3 9 C1.35 8.67 -0.3 8.34 -2 8 C-1.47731534 5.23723823 -0.89130413 2.6739124 0 0 Z " fill="#0A2246" transform="translate(164,158)"/>
<path d="M0 0 C0.66 0.33 1.32 0.66 2 1 C0.68 1.33 -0.64 1.66 -2 2 C-2 2.66 -2 3.32 -2 4 C-1.34 4.33 -0.68 4.66 0 5 C-0.78375 4.95875 -1.5675 4.9175 -2.375 4.875 C-5.16116119 4.71271266 -5.16116119 4.71271266 -7 7 C-10.625 7.125 -10.625 7.125 -14 7 C-10.57653445 3.85041169 -7.55737263 3.43820891 -3 3 C-3 2.34 -3 1.68 -3 1 C-2.01 0.67 -1.02 0.34 0 0 Z M-9 7 C-7 8 -7 8 -7 8 Z " fill="#505F75" transform="translate(259,48)"/>
<path d="M0 0 C0.66 0.33 1.32 0.66 2 1 C1.25675659 3.39489543 0.52942646 4.70777616 -1.69140625 5.93359375 C-3.44073501 6.67219923 -5.21934149 7.34049685 -7 8 C-7.33 7.01 -7.66 6.02 -8 5 C-5.67807281 3.45204854 -3.47761092 2.23880546 -1 1 C-0.67 0.67 -0.34 0.34 0 0 Z " fill="#172845" transform="translate(282,138)"/>
<path d="M0 0 C2.64 0.66 5.28 1.32 8 2 C8 3.65 8 5.3 8 7 C8.66 7.33 9.32 7.66 10 8 C9.34 8.66 8.68 9.32 8 10 C3 4.25 3 4.25 3 2 C2.01 1.67 1.02 1.34 0 1 C0 0.67 0 0.34 0 0 Z " fill="#4D5A77" transform="translate(557,345)"/>
<path d="M0 0 C1.32 0.33 2.64 0.66 4 1 C3.01 1 2.02 1 1 1 C1 1.99 1 2.98 1 4 C-4.17578125 7.22265625 -4.17578125 7.22265625 -6 8 C-6.99 7.67 -7.98 7.34 -9 7 C-7.68 6.34 -6.36 5.68 -5 5 C-5 4.34 -5 3.68 -5 3 C-3.35 2.67 -1.7 2.34 0 2 C0 1.34 0 0.68 0 0 Z " fill="#4F5D7B" transform="translate(584,179)"/>
<path d="M0 0 C0.33 0.99 0.66 1.98 1 3 C-2.62326739 4.2077558 -3.64146369 3.54311128 -7 2 C-7 2.66 -7 3.32 -7 4 C-9.31 4 -11.62 4 -14 4 C-12.68 3.67 -11.36 3.34 -10 3 C-10 2.34 -10 1.68 -10 1 C-6.59437148 0.22157062 -3.49234244 -0.09978121 0 0 Z " fill="#505C74" transform="translate(312,114)"/>
<path d="M0 0 C1.36421031 2.72842061 0.87807211 4.60953318 0.5625 7.625 C0.46066406 8.62789062 0.35882813 9.63078125 0.25390625 10.6640625 C0.17011719 11.43492188 0.08632812 12.20578125 0 13 C-2.31 13 -4.62 13 -7 13 C-6.360625 12.773125 -5.72125 12.54625 -5.0625 12.3125 C-2.78069951 11.18363423 -2.78069951 11.18363423 -2.375 8.75 C-2.189375 7.38875 -2.189375 7.38875 -2 6 C-1.35610218 3.99255385 -0.69437747 1.99054876 0 0 Z " fill="#717D92" transform="translate(155,78)"/>
<path d="M0 0 C-1.56391593 3.83870274 -3.8734626 6.30972363 -7 9 C-9.8125 9.8125 -9.8125 9.8125 -12 10 C-10.33333333 8.33333333 -8.66666667 6.66666667 -7 5 C-6.113125 4.071875 -5.22625 3.14375 -4.3125 2.1875 C-2 0 -2 0 0 0 Z " fill="#CED6DE" transform="translate(262,70)"/>
<path d="M0 0 C2.97 0.495 2.97 0.495 6 1 C6 1.66 6 2.32 6 3 C7.2684375 2.938125 7.2684375 2.938125 8.5625 2.875 C12.42213269 3.01535028 15.33688013 3.82780164 19 5 C19 5.33 19 5.66 19 6 C11.29711007 6.6212008 6.6276327 4.8741903 0 1 C0 0.67 0 0.34 0 0 Z " fill="#6C7992" transform="translate(467,256)"/>
<path d="M0 0 C0 0.66 0 1.32 0 2 C-5.00932754 5.00559652 -8.32723489 5.29341888 -14 5 C-9.89892226 2.77858289 -4.73442329 0 0 0 Z " fill="#87C4C3" transform="translate(218,231)"/>
<path d="M0 0 C1 2 1 2 0.4375 4.3125 C-1.47539467 7.88878134 -3.78248866 9.55189355 -7 12 C-7 9 -7 9 -5.6875 7.625 C-5.130625 7.08875 -4.57375 6.5525 -4 6 C-2.97695052 4.34738161 -1.97383946 2.68208635 -1 1 C-0.67 0.67 -0.34 0.34 0 0 Z " fill="#93CDCE" transform="translate(387,98)"/>
<path d="M0 0 C0.66 0.33 1.32 0.66 2 1 C0.68 1.33 -0.64 1.66 -2 2 C-2 2.99 -2 3.98 -2 5 C-5.83887763 6.48320272 -8.06204091 7.22419163 -12 6 C-10.04669132 4.96958487 -8.08718472 3.9509107 -6.125 2.9375 C-5.03445312 2.36902344 -3.94390625 1.80054688 -2.8203125 1.21484375 C-1.42425781 0.61349609 -1.42425781 0.61349609 0 0 Z " fill="#97CCCD" transform="translate(254,214)"/>
<path d="M0 0 C0.98120464 3.05263664 0.98120464 4.94736336 0 8 C-1.32 8.33 -2.64 8.66 -4 9 C-4 9.66 -4 10.32 -4 11 C-4.66 11 -5.32 11 -6 11 C-4.54955729 6.89041233 -2.48889248 3.56741255 0 0 Z " fill="#4D5C79" transform="translate(650,191)"/>
<path d="M0 0 C7.16562789 -0.28100502 13.94546999 0.79556805 21 2 C21 2.33 21 2.66 21 3 C6.21867882 3.3690205 6.21867882 3.3690205 0 1 C0 0.67 0 0.34 0 0 Z " fill="#B0B9C6" transform="translate(200,146)"/>
<path d="M0 0 C0.33 0.66 0.66 1.32 1 2 C1.66 2.33 2.32 2.66 3 3 C2.67 3.99 2.34 4.98 2 6 C0.741875 6.04125 -0.51625 6.0825 -1.8125 6.125 C-2.52019531 6.14820313 -3.22789063 6.17140625 -3.95703125 6.1953125 C-6 6 -6 6 -9 4 C-6.03 4.495 -6.03 4.495 -3 5 C-2.690625 4.360625 -2.38125 3.72125 -2.0625 3.0625 C-1 1 -1 1 0 0 Z " fill="#081E45" transform="translate(121,128)"/>
<path d="M0 0 C4.4571874 0.26218749 6.51522698 0.57711289 9.9375 3.5625 C10.618125 4.366875 11.29875 5.17125 12 6 C11.01 6.495 11.01 6.495 10 7 C7.64018187 6.06421005 5.30368736 5.06652192 3 4 C3 3.34 3 2.68 3 2 C2.01 2 1.02 2 0 2 C0 1.34 0 0.68 0 0 Z " fill="#0C1D3F" transform="translate(96,104)"/>
<path d="M0 0 C0.66 0 1.32 0 2 0 C2.08086376 2.93804996 2.1404283 5.87388075 2.1875 8.8125 C2.21263672 9.64587891 2.23777344 10.47925781 2.26367188 11.33789062 C2.27333984 12.14033203 2.28300781 12.94277344 2.29296875 13.76953125 C2.3086792 14.50792236 2.32438965 15.24631348 2.34057617 16.00708008 C1.91074167 18.52230522 0.92536938 19.39441516 -1 21 C-1 19.35 -1 17.7 -1 16 C-0.34 16 0.32 16 1 16 C0.67 10.72 0.34 5.44 0 0 Z " fill="#CFD7E5" transform="translate(339,325)"/>
<path d="M0 0 C4.29 0 8.58 0 13 0 C9.91111478 2.05925681 9.29064073 2.2390374 5.8125 2.125 C3.9253125 2.063125 3.9253125 2.063125 2 2 C2 2.66 2 3.32 2 4 C1.34 4 0.68 4 0 4 C0 2.68 0 1.36 0 0 Z " fill="#95CACA" transform="translate(69,257)"/>
<path d="M0 0 C1.32 0.99 2.64 1.98 4 3 C4 3.99 4 4.98 4 6 C1 8.1875 1 8.1875 -2 10 C-1.34 6.7 -0.68 3.4 0 0 Z " fill="#2A364B" transform="translate(287,40)"/>
<path d="M0 0 C0.66 0 1.32 0 2 0 C1.67 0.99 1.34 1.98 1 3 C-1.06640625 3.94921875 -1.06640625 3.94921875 -3.5625 4.6875 C-4.38878906 4.93886719 -5.21507812 5.19023437 -6.06640625 5.44921875 C-7.02353516 5.72185547 -7.02353516 5.72185547 -8 6 C-8 5.34 -8 4.68 -8 4 C-8.66 3.67 -9.32 3.34 -10 3 C-6.59437148 2.22157062 -3.49234244 1.90021879 0 2 C0 1.34 0 0.68 0 0 Z " fill="#3C4C6D" transform="translate(711,401)"/>
<path d="M0 0 C-0.66 0.66 -1.32 1.32 -2 2 C-2.99 2 -3.98 2 -5 2 C-5.33 2.66 -5.66 3.32 -6 4 C-11.44927536 5.27536232 -11.44927536 5.27536232 -14 4 C-9.22642128 1.28608722 -5.65611463 -0.56561146 0 0 Z " fill="#314057" transform="translate(286,38)"/>
<path d="M0 0 C1.0725 0.33 2.145 0.66 3.25 1 C6.99731601 2.1717751 6.99731601 2.1717751 11 2 C10.67 3.32 10.34 4.64 10 6 C8.51746733 5.38302681 7.03904826 4.75616104 5.5625 4.125 C4.32693359 3.60292969 4.32693359 3.60292969 3.06640625 3.0703125 C1 2 1 2 0 0 Z " fill="#4B597B" transform="translate(661,401)"/>
<path d="M0 0 C2.475 0.99 2.475 0.99 5 2 C5 2.66 5 3.32 5 4 C3.02 4.66 1.04 5.32 -1 6 C-1.66 5.34 -2.32 4.68 -3 4 C-2.34 4 -1.68 4 -1 4 C-0.67 2.68 -0.34 1.36 0 0 Z " fill="#2E4063" transform="translate(474,330)"/>
<path d="M0 0 C0.33 0.66 0.66 1.32 1 2 C0.01 2 -0.98 2 -2 2 C-2 2.66 -2 3.32 -2 4 C-2.66 4 -3.32 4 -4 4 C-4 4.66 -4 5.32 -4 6 C-5.98 6.33 -7.96 6.66 -10 7 C-6.87378374 3.60582235 -4.43458973 1.3937282 0 0 Z " fill="#415170" transform="translate(433,328)"/>
<path d="M0 0 C-2.2008849 2.47859908 -4.06372969 3.61210366 -7.1875 4.6875 C-8.26064453 5.06455078 -8.26064453 5.06455078 -9.35546875 5.44921875 C-9.89816406 5.63097656 -10.44085938 5.81273437 -11 6 C-11 5.01 -11 4.02 -11 3 C-7.14243493 0.84694043 -4.44870215 -0.39253254 0 0 Z " fill="#41506A" transform="translate(295,135)"/>
<path d="M0 0 C2.31 0.66 4.62 1.32 7 2 C7 2.66 7 3.32 7 4 C8.65 4.33 10.3 4.66 12 5 C8.84979535 6.38609004 7.68081978 5.89180331 4.3125 4.75 C1 3 1 3 0 0 Z " fill="#2D3D55" transform="translate(211,115)"/>
<path d="M0 0 C1.98 0.66 3.96 1.32 6 2 C6 2.66 6 3.32 6 4 C6.66 4.33 7.32 4.66 8 5 C5.36 5 2.72 5 0 5 C0 3.35 0 1.7 0 0 Z " fill="#40516F" transform="translate(706,328)"/>
<path d="M0 0 C0.97608217 2.92824652 1.08226668 4.95613276 1 8 C0.01 8 -0.98 8 -2 8 C-2.99 8.33 -3.98 8.66 -5 9 C-3.7508258 5.54074837 -2.32472205 2.85306797 0 0 Z " fill="#90CEC9" transform="translate(405,70)"/>
<path d="M0 0 C-1.44253657 3.36591866 -3.33264727 5.51047079 -6 8 C-6.99 7.34 -7.98 6.68 -9 6 C-7.8803014 4.99406757 -6.7540588 3.9954151 -5.625 3 C-4.68527344 2.1646875 -4.68527344 2.1646875 -3.7265625 1.3125 C-2 0 -2 0 0 0 Z " fill="#D4D9E0" transform="translate(279,56)"/>
<path d="M0 0 C0.33 0 0.66 0 1 0 C1.26252625 4.33168317 0.29243536 7.8803623 -1 12 C-1.66 12 -2.32 12 -3 12 C-2.67 9.03 -2.34 6.06 -2 3 C-1.34 3 -0.68 3 0 3 C0 2.01 0 1.02 0 0 Z " fill="#2F4160" transform="translate(413,348)"/>
<path d="M0 0 C0.33 0.66 0.66 1.32 1 2 C1.99 2.33 2.98 2.66 4 3 C3.67 3.66 3.34 4.32 3 5 C-0.3 4.34 -3.6 3.68 -7 3 C-7 2.34 -7 1.68 -7 1 C-4.50935112 0.31292445 -2.62113708 0 0 0 Z " fill="#596986" transform="translate(597,192)"/>
<path d="M0 0 C0.66 0.66 1.32 1.32 2 2 C1.8125 4.5 1.8125 4.5 1 7 C0.01 7.66 -0.98 8.32 -2 9 C-1.125 1.125 -1.125 1.125 0 0 Z " fill="#152741" transform="translate(131,159)"/>
<path d="M0 0 C4.13830989 0.30096799 6.51847024 0.67898016 10 3 C9.67 3.99 9.34 4.98 9 6 C8.484375 5.525625 7.96875 5.05125 7.4375 4.5625 C4.33217325 2.57190593 1.63367496 2.34939182 -2 2 C-1.34 1.34 -0.68 0.68 0 0 Z " fill="#0F2243" transform="translate(238,149)"/>
<path d="M0 0 C1.50662097 3.01324195 1.17770373 5.68286377 1 9 C0.34 9.66 -0.32 10.32 -1 11 C-1.66 10.67 -2.32 10.34 -3 10 C-2.39009109 6.44219804 -1.4216319 3.3171411 0 0 Z " fill="#5A6780" transform="translate(109,120)"/>
<path d="M0 0 C0.66 0.33 1.32 0.66 2 1 C1.67 1.99 1.34 2.98 1 4 C-0.65 3.67 -2.3 3.34 -4 3 C-4 3.66 -4 4.32 -4 5 C-4.66 5 -5.32 5 -6 5 C-6.33 5.99 -6.66 6.98 -7 8 C-6.875 5.6875 -6.875 5.6875 -6 3 C-3.0625 1.125 -3.0625 1.125 0 0 Z " fill="#49556D" transform="translate(61,65)"/>
<path d="M0 0 C3.31562557 0.55260426 6.15062207 1.16825705 9 3 C9.33 3.99 9.66 4.98 10 6 C7.69 5.34 5.38 4.68 3 4 C3 3.01 3 2.02 3 1 C2.01 0.67 1.02 0.34 0 0 Z " fill="#596684" transform="translate(316,299)"/>
<path d="M0 0 C4.875 1.75 4.875 1.75 6 4 C6.99 4.66 7.98 5.32 9 6 C2.25 5.25 2.25 5.25 0 3 C0 2.01 0 1.02 0 0 Z " fill="#455069" transform="translate(247,198)"/>
<path d="M0 0 C0.66 0 1.32 0 2 0 C2.22036864 3.85645121 1.60355101 6.49223216 0 10 C-0.66 9.67 -1.32 9.34 -2 9 C-1.41196203 5.97580475 -0.77321882 2.98241547 0 0 Z " fill="#11243F" transform="translate(134,149)"/>
<path d="M0 0 C2.00720923 0.28674418 4.0085944 0.61866701 6 1 C5.01 1.495 5.01 1.495 4 2 C3.67 2.99 3.34 3.98 3 5 C2.01 4.67 1.02 4.34 0 4 C-0.33 3.01 -0.66 2.02 -1 1 C-0.67 0.67 -0.34 0.34 0 0 Z " fill="#1F334D" transform="translate(233,127)"/>
<path d="M0 0 C0.33 0 0.66 0 1 0 C1.99 3.63 2.98 7.26 4 11 C3.01 11 2.02 11 1 11 C-0.20272819 8.59454362 -0.10071472 7.05003047 -0.0625 4.375 C-0.05347656 3.55773437 -0.04445313 2.74046875 -0.03515625 1.8984375 C-0.02355469 1.27195313 -0.01195312 0.64546875 0 0 Z " fill="#275470" transform="translate(346,247)"/>
<path d="M0 0 C0 1.65 0 3.3 0 5 C-1.65 5 -3.3 5 -5 5 C-5 4.01 -5 3.02 -5 2 C-2 0 -2 0 0 0 Z " fill="#162347" transform="translate(119,227)"/>
<path d="M0 0 C-0.33 0.99 -0.66 1.98 -1 3 C-2.65 3 -4.3 3 -6 3 C-6.33 3.66 -6.66 4.32 -7 5 C-6.625 3.0625 -6.625 3.0625 -6 1 C-4 0 -4 0 0 0 Z M-9 5 C-7 6 -7 6 -7 6 Z " fill="#122645" transform="translate(228,65)"/>
<path d="M0 0 C2.31 0.66 4.62 1.32 7 2 C7 3.32 7 4.64 7 6 C3.63279613 4.60667426 2.0140476 3.0210714 0 0 Z " fill="#465474" transform="translate(511,394)"/>
<path d="M0 0 C3.3 0.66 6.6 1.32 10 2 C10 2.33 10 2.66 10 3 C6 3 2 3 -2 3 C-1.34 2.01 -0.68 1.02 0 0 Z " fill="#465471" transform="translate(472,383)"/>
<path d="M0 0 C0.33 0.66 0.66 1.32 1 2 C0.01 2 -0.98 2 -2 2 C-2 2.66 -2 3.32 -2 4 C-2.66 4 -3.32 4 -4 4 C-3.67 4.99 -3.34 5.98 -3 7 C-3.99 7.33 -4.98 7.66 -6 8 C-6.66 7.34 -7.32 6.68 -8 6 C-7.01 5.67 -6.02 5.34 -5 5 C-5 4.34 -5 3.68 -5 3 C-4.34 3 -3.68 3 -3 3 C-3 2.34 -3 1.68 -3 1 C-2.01 0.67 -1.02 0.34 0 0 Z " fill="#576380" transform="translate(665,329)"/>
<path d="M0 0 C0.33 0 0.66 0 1 0 C1 3.3 1 6.6 1 10 C1.66 10 2.32 10 3 10 C2.34 11.32 1.68 12.64 1 14 C0.67 14 0.34 14 0 14 C0 9.38 0 4.76 0 0 Z " fill="#E8F1F8" transform="translate(373,326)"/>
<path d="M0 0 C1.32 0 2.64 0 4 0 C4 0.66 4 1.32 4 2 C5.32 2.33 6.64 2.66 8 3 C8.33 4.32 8.66 5.64 9 7 C7.4972763 6.02501855 5.99788037 5.04490611 4.5 4.0625 C3.6646875 3.51722656 2.829375 2.97195313 1.96875 2.41015625 C1.3190625 1.94480469 0.669375 1.47945313 0 1 C0 0.67 0 0.34 0 0 Z " fill="#CFD8E3" transform="translate(555,328)"/>
<path d="M0 0 C2.31 1.98 4.62 3.96 7 6 C6.34 6.66 5.68 7.32 5 8 C1.91763635 5.21592961 1.04793663 4.19174654 0 0 Z " fill="#374766" transform="translate(710,184)"/>
<path d="M0 0 C-2.25 2.0625 -2.25 2.0625 -5 4 C-7.3125 3.75 -7.3125 3.75 -9 3 C-7 0 -7 0 -5.0625 -0.75 C-3 -1 -3 -1 0 0 Z " fill="#132545" transform="translate(252,55)"/>
<path d="M0 0 C-1.22934015 3.68802044 -2.93859378 4.72356973 -6 7 C-6.66 6.67 -7.32 6.34 -8 6 C-7.0479279 4.99403703 -6.08812654 3.99538437 -5.125 3 C-4.59132813 2.443125 -4.05765625 1.88625 -3.5078125 1.3125 C-2 0 -2 0 0 0 Z " fill="#51607C" transform="translate(521,330)"/>
<path d="M0 0 C1 2 1 2 0.44140625 3.9453125 C0.15136719 4.66460937 -0.13867188 5.38390625 -0.4375 6.125 C-0.72496094 6.84945312 -1.01242187 7.57390625 -1.30859375 8.3203125 C-1.53675781 8.87460938 -1.76492188 9.42890625 -2 10 C-2.33 10 -2.66 10 -3 10 C-3.75 7.25 -3.75 7.25 -4 4 C-2.0625 1.625 -2.0625 1.625 0 0 Z " fill="#34647F" transform="translate(273,246)"/>
<path d="M0 0 C-2.31 1.32 -4.62 2.64 -7 4 C-7 3.34 -7 2.68 -7 2 C-7.99 1.67 -8.98 1.34 -10 1 C-8.71073008 0.63720544 -7.41846728 0.28503302 -6.125 -0.0625 C-5.40570313 -0.25972656 -4.68640625 -0.45695313 -3.9453125 -0.66015625 C-2 -1 -2 -1 0 0 Z " fill="#8ACACA" transform="translate(204,237)"/>
<path d="M0 0 C1.32 0.33 2.64 0.66 4 1 C2.1875 3 2.1875 3 0 5 C-0.99 5 -1.98 5 -3 5 C-3 4.34 -3 3.68 -3 3 C-2.34 3 -1.68 3 -1 3 C-0.67 2.01 -0.34 1.02 0 0 Z " fill="#8DC9CE" transform="translate(342,150)"/>
<path d="M0 0 C2.475 0.495 2.475 0.495 5 1 C5 1.66 5 2.32 5 3 C5.66 3 6.32 3 7 3 C7 3.66 7 4.32 7 5 C4.625 4.75 4.625 4.75 2 4 C0.6875 1.9375 0.6875 1.9375 0 0 Z " fill="#444F68" transform="translate(116,76)"/>
<path d="M0 0 C0.66 0.99 1.32 1.98 2 3 C1.01 3.66 0.02 4.32 -1 5 C-1 4.01 -1 3.02 -1 2 C-1.99 2.66 -2.98 3.32 -4 4 C-5.32 3.67 -6.64 3.34 -8 3 C-5.36 2.01 -2.72 1.02 0 0 Z " fill="#2F3C59" transform="translate(207,73)"/>
<path d="M0 0 C0.99 0.33 1.98 0.66 3 1 C0.6875 3.0625 0.6875 3.0625 -2 5 C-2.99 4.67 -3.98 4.34 -5 4 C-2.6875 1.9375 -2.6875 1.9375 0 0 Z " fill="#D0D9E3" transform="translate(534,346)"/>
<path d="M0 0 C0.99 0 1.98 0 3 0 C3 0.66 3 1.32 3 2 C4.65 2 6.3 2 8 2 C8 2.33 8 2.66 8 3 C4.7 3 1.4 3 -2 3 C-1.34 2.01 -0.68 1.02 0 0 Z " fill="#081F42" transform="translate(227,146)"/>
<path d="M0 0 C0.99 0.33 1.98 0.66 3 1 C1.125 5.75 1.125 5.75 0 8 C-0.66 7.67 -1.32 7.34 -2 7 C-1.814375 6.38125 -1.62875 5.7625 -1.4375 5.125 C-0.76313824 2.95839822 -0.76313824 2.95839822 -2 1 C-1.34 0.67 -0.68 0.34 0 0 Z " fill="#606C82" transform="translate(178,147)"/>
<path d="M0 0 C0.33 0 0.66 0 1 0 C1.36923077 6.4 1.36923077 6.4 -0.5 9.4375 C-0.995 9.953125 -1.49 10.46875 -2 11 C-2.19622241 6.78121808 -1.80230168 3.82989106 0 0 Z " fill="#768293" transform="translate(136,137)"/>
<path d="M0 0 C0.66 0 1.32 0 2 0 C2 3.63 2 7.26 2 11 C1.67 11 1.34 11 1 11 C1 8.36 1 5.72 1 3 C0.01 2.67 -0.98 2.34 -2 2 C-1.34 1.34 -0.68 0.68 0 0 Z " fill="#8CC2C7" transform="translate(361,131)"/>
<path d="M0 0 C-1.32 1.32 -2.64 2.64 -4 4 C-4.99 3.67 -5.98 3.34 -7 3 C-7 2.34 -7 1.68 -7 1 C-3.375 -1.125 -3.375 -1.125 0 0 Z " fill="#0E2042" transform="translate(189,84)"/>
<path d="M0 0 C0 0.99 0 1.98 0 3 C-2.97 3.66 -5.94 4.32 -9 5 C-9 4.34 -9 3.68 -9 3 C-2.25 0 -2.25 0 0 0 Z " fill="#0D1E3F" transform="translate(206,75)"/>
</svg>
